<?xml version="1.0" encoding="UTF-8" standalone="no"?>
<svg xmlns:dc="http://purl.org/dc/elements/1.1/" xmlns:cc="http://web.resource.org/cc/" xmlns:rdf="http://www.w3.org/1999/02/22-rdf-syntax-ns#" xmlns="http://www.w3.org/2000/svg" xmlns:sodipodi="http://inkscape.sourceforge.net/DTD/sodipodi-0.dtd" xmlns:inkscape="http://www.inkscape.org/namespaces/inkscape" width="652" height="705" viewBox="59 109 652 705" sodipodi:version="0.32" inkscape:version="0.42.2" sodipodi:docbase="/home/cworld/tmp/2" sodipodi:docname="7S.svg">
  <metadata>
    <rdf:RDF>
      <cc:Work rdf:about="">
        <dc:format>image/svg+xml</dc:format>
        <dc:type rdf:resource="http://purl.org/dc/dcmitype/StillImage"/>
      </cc:Work>
    </rdf:RDF>
  </metadata>
  <g inkscape:label="Layer 1" inkscape:groupmode="layer" id="layer1">
    <path transform="translate(455.7143,-5.714290)" style="fill:none;fill-opacity:1.0000000;fill-rule:evenodd;stroke:#000000;stroke-width:2.0000000;stroke-linecap:round;stroke-linejoin:round;stroke-miterlimit:4.0000000;stroke-dashoffset:0.0000000;stroke-opacity:1.0000000" d="M -68.571419,731.18195 L -296.42745,336.52375 L 159.28459,336.52374 L -68.571419,731.18195 z " id="path3679"/>
    <path transform="translate(455.7143,-5.714290)" style="fill:none;fill-opacity:1.0000000;fill-rule:evenodd;stroke:#000000;stroke-width:2.0000000;stroke-linecap:round;stroke-linejoin:round;stroke-miterlimit:4.0000000;stroke-dashoffset:0.0000000;stroke-opacity:1.0000000" d="M -296.42744,599.62922 L -68.571433,204.97101 L 159.28460,599.62921 L -296.42744,599.62922 z " id="path3677"/>
    <path transform="translate(455.7143,-5.714290)" style="fill:none;fill-opacity:1.0000000;fill-rule:evenodd;stroke:#000000;stroke-width:2.0000000;stroke-linecap:round;stroke-linejoin:round;stroke-miterlimit:4.0000000;stroke-dashoffset:0.0000000;stroke-opacity:1.0000000" d="M -68.571419,731.18195 L -68.571433,204.97101 L -68.571419,731.18195 z " id="path3675"/>
    <path style="fill:none;fill-opacity:1.0000000;fill-rule:evenodd;stroke:#000000;stroke-width:2.0000000;stroke-linecap:round;stroke-linejoin:round;stroke-miterlimit:4.0000000;stroke-dashoffset:0.0000000;stroke-opacity:1.0000000" d="M 614.99889,330.80945 L 159.28686,593.91493 L 159.28685,330.80946 L 614.99890,593.91492 L 614.99889,330.80945 z " id="path3671"/>
    <path transform="translate(455.7143,-5.714290)" style="fill:none;fill-opacity:1.0000000;fill-rule:evenodd;stroke:#000000;stroke-width:2.0000000;stroke-linecap:round;stroke-linejoin:round;stroke-miterlimit:4.0000000;stroke-dashoffset:0.0000000;stroke-opacity:1.0000000" d="M -68.571419,731.18195 L -296.42744,599.62922 L -296.42745,336.52375 L -68.571433,204.97101 L 159.28459,336.52374 L 159.28460,599.62921 L -68.571419,731.18195 z " id="path2079"/>
    <path transform="matrix(0.720548,0.000000,0.000000,0.720548,126.5678,106.5932)" style="font-size:38.859314px;font-style:normal;font-variant:normal;font-weight:bold;font-stretch:normal;text-align:center;line-height:173.47907%;writing-mode:lr-tb;text-anchor:middle;fill:#ffffff;fill-opacity:1.0000000;fill-rule:evenodd;stroke:#000000;stroke-width:2.7756653;stroke-linecap:round;stroke-linejoin:round;stroke-miterlimit:4.0000000;stroke-dashoffset:0.0000000;stroke-opacity:1.0000000;font-family:Bitstream Vera Sans" d="M 472.75140,493.74783 C 472.75140,555.08430 422.97108,604.86462 361.63461,604.86462 C 300.29815,604.86462 250.51783,555.08430 250.51783,493.74783 C 250.51783,432.41137 300.29815,382.63105 361.63461,382.63105 C 422.97108,382.63105 472.75140,432.41137 472.75140,493.74783 z " id="path1332"/>
    <path style="font-size:20.000000px;font-style:normal;font-variant:normal;font-weight:bold;font-stretch:normal;text-align:center;line-height:125.00000%;writing-mode:lr-tb;text-anchor:middle;fill:#000000;fill-opacity:1.0000000;stroke:none;stroke-width:1.0000000pt;stroke-linecap:butt;stroke-linejoin:miter;stroke-opacity:1.0000000;font-family:Bitstream Vera Sans" d="M 361.79132,404.34464 L 361.79132,407.43057 C 360.99053,407.07251 360.20928,406.80233 359.44757,406.62003 C 358.68584,406.43775 357.96644,406.34660 357.28937,406.34659 C 356.39092,406.34660 355.72686,406.47030 355.29718,406.71768 C 354.86749,406.96509 354.65264,407.34920 354.65265,407.87003 C 354.65264,408.26066 354.79587,408.56665 355.08234,408.78799 C 355.37530,409.00285 355.90264,409.18839 356.66437,409.34464 L 358.26593,409.66690 C 359.88701,409.99243 361.03936,410.48722 361.72296,411.15128 C 362.40654,411.81534 362.74834,412.75935 362.74835,413.98331 C 362.74834,415.59138 362.26982,416.78930 361.31281,417.57706 C 360.36227,418.35831 358.90720,418.74893 356.94757,418.74893 C 356.02309,418.74893 355.09535,418.66104 354.16437,418.48526 C 353.23337,418.30948 352.30239,418.04906 351.37140,417.70401 L 351.37140,414.53018 C 352.30239,415.02498 353.20082,415.39933 354.06671,415.65323 C 354.93910,415.90063 355.77895,416.02432 356.58624,416.02432 C 357.40655,416.02432 358.03480,415.88761 358.47101,415.61417 C 358.90720,415.34073 359.12530,414.95011 359.12531,414.44229 C 359.12530,413.98657 358.97556,413.63500 358.67609,413.38760 C 358.38311,413.14021 357.79392,412.91886 356.90851,412.72354 L 355.45343,412.40128 C 353.99509,412.08878 352.92739,411.59074 352.25031,410.90714 C 351.57973,410.22355 351.24444,409.30233 351.24445,408.14346 C 351.24444,406.69165 351.71319,405.57512 352.65070,404.79385 C 353.58819,404.01262 354.93585,403.62199 356.69366,403.62198 C 357.49444,403.62199 358.31801,403.68384 359.16437,403.80753 C 360.01071,403.92473 360.88636,404.10376 361.79132,404.34464 M 365.78546,414.20792 L 365.78546,407.52823 L 369.30109,407.52823 L 369.30109,408.62198 C 369.30108,409.21444 369.29783,409.95988 369.29132,410.85831 C 369.28481,411.75024 369.28155,412.34594 369.28156,412.64542 C 369.28155,413.52433 369.30434,414.15909 369.34991,414.54971 C 369.39548,414.93383 369.47361,415.21378 369.58429,415.38956 C 369.72751,415.61742 369.91306,415.79321 370.14093,415.91690 C 370.37530,416.04060 370.64223,416.10245 370.94171,416.10245 C 371.67087,416.10245 372.24379,415.82250 372.66046,415.26260 C 373.07712,414.70271 373.28545,413.92472 373.28546,412.92862 L 373.28546,407.52823 L 376.78156,407.52823 L 376.78156,418.46573 L 373.28546,418.46573 L 373.28546,416.88370 C 372.75811,417.52172 372.19821,417.99372 371.60577,418.29971 C 371.01983,418.59919 370.37204,418.74893 369.66241,418.74893 C 368.39939,418.74893 367.43585,418.36156 366.77179,417.58682 C 366.11424,416.81208 365.78546,415.68578 365.78546,414.20792 M 383.65656,416.88370 L 383.65656,422.62589 L 380.16046,422.62589 L 380.16046,407.52823 L 383.65656,407.52823 L 383.65656,409.12979 C 384.13832,408.49178 384.67217,408.02303 385.25812,407.72354 C 385.84405,407.41756 386.51788,407.26457 387.27960,407.26456 C 388.62725,407.26457 389.73402,407.80168 390.59991,408.87589 C 391.46579,409.94360 391.89873,411.32055 391.89874,413.00674 C 391.89873,414.69295 391.46579,416.07315 390.59991,417.14737 C 389.73402,418.21508 388.62725,418.74893 387.27960,418.74893 C 386.51788,418.74893 385.84405,418.59919 385.25812,418.29971 C 384.67217,417.99372 384.13832,417.52172 383.65656,416.88370 M 385.98077,409.80362 C 385.23207,409.80363 384.65590,410.08032 384.25226,410.63370 C 383.85512,411.18058 383.65655,411.97159 383.65656,413.00674 C 383.65655,414.04191 383.85512,414.83618 384.25226,415.38956 C 384.65590,415.93643 385.23207,416.20987 385.98077,416.20987 C 386.72946,416.20987 387.29912,415.93643 387.68976,415.38956 C 388.08688,414.84269 388.28545,414.04842 388.28546,413.00674 C 388.28545,411.96508 388.08688,411.17081 387.68976,410.62393 C 387.29912,410.07707 386.72946,409.80363 385.98077,409.80362 M 405.41437,412.96768 L 405.41437,413.96378 L 397.24054,413.96378 C 397.32517,414.78409 397.62139,415.39933 398.12921,415.80948 C 398.63702,416.21964 399.34665,416.42472 400.25812,416.42471 C 400.99379,416.42472 401.74574,416.31729 402.51398,416.10245 C 403.28871,415.88110 404.08298,415.54907 404.89679,415.10635 L 404.89679,417.80167 C 404.06996,418.11417 403.24313,418.34854 402.41632,418.50479 C 401.58949,418.66755 400.76267,418.74893 399.93585,418.74893 C 397.95668,418.74893 396.41697,418.24763 395.31671,417.24503 C 394.22296,416.23591 393.67609,414.82315 393.67609,413.00674 C 393.67609,411.22290 394.21319,409.81990 395.28741,408.79776 C 396.36814,407.77564 397.85251,407.26457 399.74054,407.26456 C 401.45928,407.26457 402.83298,407.78215 403.86163,408.81729 C 404.89678,409.85246 405.41436,411.23592 405.41437,412.96768 M 401.82062,411.80557 C 401.82061,411.14152 401.62530,410.60766 401.23468,410.20401 C 400.85056,409.79386 400.34600,409.58878 399.72101,409.58878 C 399.04392,409.58878 398.49379,409.78084 398.07062,410.16495 C 397.64744,410.54256 397.38376,411.08943 397.27960,411.80557 L 401.82062,411.80557 M 416.17609,410.50674 C 415.87009,410.36352 415.56410,410.25936 415.25812,410.19424 C 414.95863,410.12264 414.65590,410.08683 414.34991,410.08682 C 413.45147,410.08683 412.75811,410.37654 412.26984,410.95596 C 411.78806,411.52889 411.54717,412.35245 411.54718,413.42667 L 411.54718,418.46573 L 408.05109,418.46573 L 408.05109,407.52823 L 411.54718,407.52823 L 411.54718,409.32510 C 411.99639,408.60897 412.51072,408.08813 413.09015,407.76260 C 413.67608,407.43058 414.37595,407.26457 415.18976,407.26456 C 415.30694,407.26457 415.43389,407.27108 415.57062,407.28409 C 415.70733,407.29061 415.90589,407.31014 416.16632,407.34268 L 416.17609,410.50674 M 417.33820,411.28799 L 423.47101,411.28799 L 423.47101,414.12979 L 417.33820,414.12979 L 417.33820,411.28799 M 346.24445,434.76456 C 345.46970,434.76457 344.87725,435.04451 344.46710,435.60440 C 344.06345,436.15779 343.86163,436.95857 343.86163,438.00674 C 343.86163,439.05493 344.06345,439.85896 344.46710,440.41885 C 344.87725,440.97224 345.46970,441.24893 346.24445,441.24893 C 347.00616,441.24893 347.58884,440.97224 347.99249,440.41885 C 348.39613,439.85896 348.59795,439.05493 348.59796,438.00674 C 348.59795,436.95857 348.39613,436.15779 347.99249,435.60440 C 347.58884,435.04451 347.00616,434.76457 346.24445,434.76456 M 346.24445,432.26456 C 348.12595,432.26457 349.59404,432.77238 350.64874,433.78799 C 351.70993,434.80363 352.24053,436.20988 352.24054,438.00674 C 352.24053,439.80362 351.70993,441.20987 350.64874,442.22549 C 349.59404,443.24112 348.12595,443.74893 346.24445,443.74893 C 344.35642,443.74893 342.87856,443.24112 341.81085,442.22549 C 340.74965,441.20987 340.21905,439.80362 340.21906,438.00674 C 340.21905,436.20988 340.74965,434.80363 341.81085,433.78799 C 342.87856,432.77238 344.35642,432.26457 346.24445,432.26456 M 362.91437,435.50674 C 362.60837,435.36352 362.30238,435.25936 361.99640,435.19424 C 361.69691,435.12264 361.39418,435.08683 361.08820,435.08682 C 360.18975,435.08683 359.49639,435.37654 359.00812,435.95596 C 358.52634,436.52889 358.28546,437.35245 358.28546,438.42667 L 358.28546,443.46573 L 354.78937,443.46573 L 354.78937,432.52823 L 358.28546,432.52823 L 358.28546,434.32510 C 358.73467,433.60897 359.24900,433.08813 359.82843,432.76260 C 360.41436,432.43058 361.11423,432.26457 361.92804,432.26456 C 362.04522,432.26457 362.17217,432.27108 362.30890,432.28409 C 362.44561,432.29061 362.64418,432.31014 362.90460,432.34268 L 362.91437,435.50674 M 372.11359,434.12979 L 372.11359,428.27042 L 375.62921,428.27042 L 375.62921,443.46573 L 372.11359,443.46573 L 372.11359,441.88370 C 371.63181,442.52823 371.10121,443.00023 370.52179,443.29971 C 369.94236,443.59919 369.27178,443.74893 368.51007,443.74893 C 367.16241,443.74893 366.05564,443.21508 365.18976,442.14737 C 364.32387,441.07315 363.89093,439.69295 363.89093,438.00674 C 363.89093,436.32055 364.32387,434.94360 365.18976,433.87589 C 366.05564,432.80168 367.16241,432.26457 368.51007,432.26456 C 369.26527,432.26457 369.93259,432.41756 370.51202,432.72354 C 371.09795,433.02303 371.63181,433.49178 372.11359,434.12979 M 369.80890,441.20987 C 370.55759,441.20987 371.12725,440.93643 371.51788,440.38956 C 371.91501,439.84269 372.11358,439.04842 372.11359,438.00674 C 372.11358,436.96508 371.91501,436.17081 371.51788,435.62393 C 371.12725,435.07707 370.55759,434.80363 369.80890,434.80362 C 369.06671,434.80363 368.49704,435.07707 368.09991,435.62393 C 367.70928,436.17081 367.51397,436.96508 367.51398,438.00674 C 367.51397,439.04842 367.70928,439.84269 368.09991,440.38956 C 368.49704,440.93643 369.06671,441.20987 369.80890,441.20987 M 378.96906,432.52823 L 382.46515,432.52823 L 382.46515,443.46573 L 378.96906,443.46573 L 378.96906,432.52823 M 378.96906,428.27042 L 382.46515,428.27042 L 382.46515,431.12198 L 378.96906,431.12198 L 378.96906,428.27042 M 396.84015,436.80557 L 396.84015,443.46573 L 393.32452,443.46573 L 393.32452,442.38174 L 393.32452,438.36807 C 393.32451,437.42407 393.30173,436.77303 393.25616,436.41495 C 393.21709,436.05688 393.14548,435.79321 393.04132,435.62393 C 392.90459,435.39608 392.71905,435.22029 392.48468,435.09659 C 392.25030,434.96639 391.98337,434.90128 391.68390,434.90128 C 390.95473,434.90128 390.38181,435.18449 389.96515,435.75089 C 389.54848,436.31079 389.34014,437.08878 389.34015,438.08487 L 389.34015,443.46573 L 385.84406,443.46573 L 385.84406,432.52823 L 389.34015,432.52823 L 389.34015,434.12979 C 389.86749,433.49178 390.42738,433.02303 391.01984,432.72354 C 391.61228,432.41756 392.26657,432.26457 392.98273,432.26456 C 394.24574,432.26457 395.20277,432.65194 395.85382,433.42667 C 396.51136,434.20142 396.84014,435.32772 396.84015,436.80557 M 404.96515,438.54385 C 404.23598,438.54386 403.68585,438.66756 403.31476,438.91495 C 402.95017,439.16235 402.76788,439.52693 402.76788,440.00870 C 402.76788,440.45141 402.91436,440.79972 403.20734,441.05362 C 403.50681,441.30102 403.92022,441.42472 404.44757,441.42471 C 405.10512,441.42472 405.65850,441.19034 406.10773,440.72159 C 406.55694,440.24633 406.78155,439.65388 406.78156,438.94424 L 406.78156,438.54385 L 404.96515,438.54385 M 410.30695,437.22549 L 410.30695,443.46573 L 406.78156,443.46573 L 406.78156,441.84464 C 406.31280,442.50870 405.78545,442.99372 405.19952,443.29971 C 404.61358,443.59919 403.90069,443.74893 403.06085,443.74893 C 401.92804,443.74893 401.00681,443.42016 400.29718,442.76260 C 399.59405,442.09854 399.24249,441.23917 399.24249,440.18448 C 399.24249,438.90193 399.68194,437.96118 400.56085,437.36221 C 401.44627,436.76326 402.83298,436.46378 404.72101,436.46378 L 406.78156,436.46378 L 406.78156,436.19034 C 406.78155,435.63696 406.56345,435.23332 406.12726,434.97940 C 405.69105,434.71899 405.01072,434.58878 404.08624,434.58878 C 403.33754,434.58878 402.64093,434.66365 401.99640,434.81339 C 401.35186,434.96313 400.75291,435.18774 400.19952,435.48721 L 400.19952,432.82120 C 400.94822,432.63892 401.70017,432.50220 402.45538,432.41104 C 403.21059,432.31340 403.96579,432.26457 404.72101,432.26456 C 406.69366,432.26457 408.11618,432.65519 408.98859,433.43643 C 409.86748,434.21118 410.30693,435.47420 410.30695,437.22549 M 417.39679,429.42276 L 417.39679,432.52823 L 421.00031,432.52823 L 421.00031,435.02823 L 417.39679,435.02823 L 417.39679,439.66690 C 417.39678,440.17472 417.49770,440.51977 417.69952,440.70206 C 417.90134,440.87784 418.30173,440.96573 418.90070,440.96573 L 420.69757,440.96573 L 420.69757,443.46573 L 417.69952,443.46573 C 416.31931,443.46573 415.33949,443.17927 414.76007,442.60635 C 414.18715,442.02693 413.90069,441.04711 413.90070,439.66690 L 413.90070,435.02823 L 412.16241,435.02823 L 412.16241,432.52823 L 413.90070,432.52823 L 413.90070,429.42276 L 417.39679,429.42276 M 434.06671,437.96768 L 434.06671,438.96378 L 425.89288,438.96378 C 425.97751,439.78409 426.27374,440.39933 426.78156,440.80948 C 427.28936,441.21964 427.99900,441.42472 428.91046,441.42471 C 429.64613,441.42472 430.39808,441.31729 431.16632,441.10245 C 431.94105,440.88110 432.73532,440.54907 433.54913,440.10635 L 433.54913,442.80167 C 432.72230,443.11417 431.89548,443.34854 431.06866,443.50479 C 430.24183,443.66755 429.41501,443.74893 428.58820,443.74893 C 426.60902,443.74893 425.06931,443.24763 423.96906,442.24503 C 422.87530,441.23591 422.32843,439.82315 422.32843,438.00674 C 422.32843,436.22290 422.86554,434.81990 423.93976,433.79776 C 425.02048,432.77564 426.50486,432.26457 428.39288,432.26456 C 430.11162,432.26457 431.48532,432.78215 432.51398,433.81729 C 433.54912,434.85246 434.06670,436.23592 434.06671,437.96768 M 430.47296,436.80557 C 430.47295,436.14152 430.27764,435.60766 429.88702,435.20401 C 429.50290,434.79386 428.99834,434.58878 428.37335,434.58878 C 427.69626,434.58878 427.14613,434.78084 426.72296,435.16495 C 426.29978,435.54256 426.03611,436.08943 425.93195,436.80557 L 430.47296,436.80557 M 370.92218,467.38174 C 369.98467,467.83747 369.01136,468.17927 368.00226,468.40714 C 366.99313,468.63500 365.95147,468.74893 364.87726,468.74893 C 362.44887,468.74893 360.52504,468.07185 359.10577,466.71768 C 357.68650,465.35701 356.97687,463.51456 356.97687,461.19034 C 356.97687,458.84009 357.69952,456.99113 359.14484,455.64346 C 360.59014,454.29582 362.56931,453.62199 365.08234,453.62198 C 366.05238,453.62199 366.98011,453.71314 367.86554,453.89542 C 368.75745,454.07772 369.59730,454.34790 370.38507,454.70596 L 370.38507,457.72354 C 369.57126,457.26131 368.76071,456.91626 367.95343,456.68839 C 367.15264,456.46053 366.34860,456.34660 365.54132,456.34659 C 364.04392,456.34660 362.88832,456.76652 362.07452,457.60635 C 361.26723,458.43970 360.86358,459.63436 360.86359,461.19034 C 360.86358,462.73331 361.25421,463.92472 362.03546,464.76456 C 362.81670,465.60440 363.92673,466.02432 365.36554,466.02432 C 365.75615,466.02432 366.11748,466.00154 366.44952,465.95596 C 366.78805,465.90388 367.09079,465.82576 367.35773,465.72159 L 367.35773,462.88956 L 365.06281,462.88956 L 365.06281,460.37003 L 370.92218,460.37003 L 370.92218,467.38174 M 379.27179,459.76456 C 378.49704,459.76457 377.90460,460.04451 377.49445,460.60440 C 377.09080,461.15779 376.88897,461.95857 376.88898,463.00674 C 376.88897,464.05493 377.09080,464.85896 377.49445,465.41885 C 377.90460,465.97224 378.49704,466.24893 379.27179,466.24893 C 380.03350,466.24893 380.61618,465.97224 381.01984,465.41885 C 381.42347,464.85896 381.62530,464.05493 381.62531,463.00674 C 381.62530,461.95857 381.42347,461.15779 381.01984,460.60440 C 380.61618,460.04451 380.03350,459.76457 379.27179,459.76456 M 379.27179,457.26456 C 381.15329,457.26457 382.62139,457.77238 383.67609,458.78799 C 384.73727,459.80363 385.26787,461.20988 385.26788,463.00674 C 385.26787,464.80362 384.73727,466.20987 383.67609,467.22549 C 382.62139,468.24112 381.15329,468.74893 379.27179,468.74893 C 377.38376,468.74893 375.90590,468.24112 374.83820,467.22549 C 373.77700,466.20987 373.24640,464.80362 373.24640,463.00674 C 373.24640,461.20988 373.77700,459.80363 374.83820,458.78799 C 375.90590,457.77238 377.38376,457.26457 379.27179,457.26456 M 392.71906,463.54385 C 391.98988,463.54386 391.43975,463.66756 391.06866,463.91495 C 390.70408,464.16235 390.52179,464.52693 390.52179,465.00870 C 390.52179,465.45141 390.66827,465.79972 390.96124,466.05362 C 391.26072,466.30102 391.67413,466.42472 392.20148,466.42471 C 392.85902,466.42472 393.41241,466.19034 393.86163,465.72159 C 394.31084,465.24633 394.53545,464.65388 394.53546,463.94424 L 394.53546,463.54385 L 392.71906,463.54385 M 398.06085,462.22549 L 398.06085,468.46573 L 394.53546,468.46573 L 394.53546,466.84464 C 394.06670,467.50870 393.53936,467.99372 392.95343,468.29971 C 392.36749,468.59919 391.65460,468.74893 390.81476,468.74893 C 389.68194,468.74893 388.76072,468.42016 388.05109,467.76260 C 387.34796,467.09854 386.99640,466.23917 386.99640,465.18448 C 386.99640,463.90193 387.43585,462.96118 388.31476,462.36221 C 389.20017,461.76326 390.58689,461.46378 392.47491,461.46378 L 394.53546,461.46378 L 394.53546,461.19034 C 394.53545,460.63696 394.31735,460.23332 393.88116,459.97940 C 393.44496,459.71899 392.76462,459.58878 391.84015,459.58878 C 391.09145,459.58878 390.39483,459.66365 389.75031,459.81339 C 389.10577,459.96313 388.50681,460.18774 387.95343,460.48721 L 387.95343,457.82120 C 388.70213,457.63892 389.45408,457.50220 390.20929,457.41104 C 390.96449,457.31340 391.71970,457.26457 392.47491,457.26456 C 394.44756,457.26457 395.87009,457.65519 396.74249,458.43643 C 397.62139,459.21118 398.06084,460.47420 398.06085,462.22549 M 401.33234,453.27042 L 404.82843,453.27042 L 404.82843,468.46573 L 401.33234,468.46573 L 401.33234,453.27042 M 416.75226,457.87003 L 416.75226,460.52628 C 416.00355,460.21378 415.28090,459.97941 414.58429,459.82315 C 413.88767,459.66691 413.23012,459.58878 412.61163,459.58878 C 411.94757,459.58878 411.45277,459.67342 411.12726,459.84268 C 410.80824,460.00545 410.64874,460.25936 410.64874,460.60440 C 410.64874,460.88436 410.76918,461.09920 411.01007,461.24893 C 411.25746,461.39868 411.69691,461.50936 412.32843,461.58096 L 412.94366,461.66885 C 414.73402,461.89672 415.93845,462.27107 416.55695,462.79190 C 417.17542,463.31274 417.48467,464.12980 417.48468,465.24307 C 417.48467,466.40844 417.05498,467.28409 416.19562,467.87003 C 415.33623,468.45596 414.05368,468.74893 412.34796,468.74893 C 411.62530,468.74893 410.87660,468.69034 410.10187,468.57315 C 409.33364,468.46247 408.54262,468.29320 407.72882,468.06534 L 407.72882,465.40909 C 408.42543,465.74763 409.13832,466.00154 409.86749,466.17081 C 410.60317,466.34008 411.34861,466.42472 412.10382,466.42471 C 412.78741,466.42472 413.30173,466.33031 413.64679,466.14151 C 413.99183,465.95271 414.16436,465.67276 414.16437,465.30167 C 414.16436,464.98917 414.04392,464.75805 413.80304,464.60831 C 413.56866,464.45206 413.09665,464.33162 412.38702,464.24698 L 411.77179,464.16885 C 410.21580,463.97355 409.12530,463.61222 408.50031,463.08487 C 407.87530,462.55753 407.56280,461.75675 407.56281,460.68253 C 407.56280,459.52368 407.95994,458.66431 408.75421,458.10440 C 409.54848,457.54452 410.76593,457.26457 412.40656,457.26456 C 413.05108,457.26457 413.72816,457.31340 414.43781,457.41104 C 415.14743,457.50871 415.91892,457.66170 416.75226,457.87003 M 350.21906,496.10245 L 347.31866,496.10245 C 346.32257,494.49437 345.58689,492.96768 345.11163,491.52237 C 344.63637,490.07055 344.39874,488.63175 344.39874,487.20596 C 344.39874,485.78019 344.63637,484.33813 345.11163,482.87979 C 345.59340,481.41496 346.32908,479.88501 347.31866,478.28995 L 350.21906,478.28995 C 349.38572,479.83293 348.76072,481.34335 348.34406,482.82120 C 347.92738,484.29256 347.71905,485.74764 347.71906,487.18643 C 347.71905,488.62524 347.92413,490.08357 348.33429,491.56143 C 348.75095,493.03930 349.37920,494.55297 350.21906,496.10245 M 363.80304,479.34464 L 363.80304,482.43057 C 363.00225,482.07251 362.22100,481.80233 361.45929,481.62003 C 360.69756,481.43775 359.97816,481.34660 359.30109,481.34659 C 358.40264,481.34660 357.73858,481.47030 357.30890,481.71768 C 356.87921,481.96509 356.66436,482.34920 356.66437,482.87003 C 356.66436,483.26066 356.80759,483.56665 357.09406,483.78799 C 357.38702,484.00285 357.91436,484.18839 358.67609,484.34464 L 360.27765,484.66690 C 361.89873,484.99243 363.05108,485.48722 363.73468,486.15128 C 364.41826,486.81534 364.76006,487.75935 364.76007,488.98331 C 364.76006,490.59138 364.28154,491.78930 363.32452,492.57706 C 362.37399,493.35831 360.91892,493.74893 358.95929,493.74893 C 358.03480,493.74893 357.10707,493.66104 356.17609,493.48526 C 355.24509,493.30948 354.31410,493.04906 353.38312,492.70401 L 353.38312,489.53018 C 354.31410,490.02498 355.21254,490.39933 356.07843,490.65323 C 356.95082,490.90063 357.79066,491.02432 358.59796,491.02432 C 359.41827,491.02432 360.04652,490.88761 360.48273,490.61417 C 360.91892,490.34073 361.13701,489.95011 361.13702,489.44229 C 361.13701,488.98657 360.98728,488.63500 360.68781,488.38760 C 360.39483,488.14021 359.80564,487.91886 358.92023,487.72354 L 357.46515,487.40128 C 356.00681,487.08878 354.93910,486.59074 354.26202,485.90714 C 353.59145,485.22355 353.25616,484.30233 353.25616,483.14346 C 353.25616,481.69165 353.72491,480.57512 354.66241,479.79385 C 355.59991,479.01262 356.94757,478.62199 358.70538,478.62198 C 359.50616,478.62199 360.32972,478.68384 361.17609,478.80753 C 362.02243,478.92473 362.89808,479.10376 363.80304,479.34464 M 378.91046,486.80557 L 378.91046,493.46573 L 375.39484,493.46573 L 375.39484,492.38174 L 375.39484,488.38760 C 375.39483,487.43058 375.37204,486.77303 375.32648,486.41495 C 375.28741,486.05688 375.21579,485.79321 375.11163,485.62393 C 374.97491,485.39608 374.78936,485.22029 374.55499,485.09659 C 374.32061,484.96639 374.05368,484.90128 373.75421,484.90128 C 373.02504,484.90128 372.45212,485.18449 372.03546,485.75089 C 371.61879,486.31079 371.41046,487.08878 371.41046,488.08487 L 371.41046,493.46573 L 367.91437,493.46573 L 367.91437,478.27042 L 371.41046,478.27042 L 371.41046,484.12979 C 371.93780,483.49178 372.49769,483.02303 373.09015,482.72354 C 373.68259,482.41756 374.33689,482.26457 375.05304,482.26456 C 376.31605,482.26457 377.27308,482.65194 377.92413,483.42667 C 378.58167,484.20142 378.91045,485.32772 378.91046,486.80557 M 387.03546,488.54385 C 386.30629,488.54386 385.75616,488.66756 385.38507,488.91495 C 385.02048,489.16235 384.83819,489.52693 384.83820,490.00870 C 384.83819,490.45141 384.98468,490.79972 385.27765,491.05362 C 385.57712,491.30102 385.99053,491.42472 386.51788,491.42471 C 387.17543,491.42472 387.72881,491.19034 388.17804,490.72159 C 388.62725,490.24633 388.85186,489.65388 388.85187,488.94424 L 388.85187,488.54385 L 387.03546,488.54385 M 392.37726,487.22549 L 392.37726,493.46573 L 388.85187,493.46573 L 388.85187,491.84464 C 388.38311,492.50870 387.85577,492.99372 387.26984,493.29971 C 386.68389,493.59919 385.97100,493.74893 385.13116,493.74893 C 383.99835,493.74893 383.07713,493.42016 382.36749,492.76260 C 381.66437,492.09854 381.31280,491.23917 381.31281,490.18448 C 381.31280,488.90193 381.75226,487.96118 382.63116,487.36221 C 383.51658,486.76326 384.90330,486.46378 386.79132,486.46378 L 388.85187,486.46378 L 388.85187,486.19034 C 388.85186,485.63696 388.63376,485.23332 388.19757,484.97940 C 387.76137,484.71899 387.08103,484.58878 386.15656,484.58878 C 385.40785,484.58878 384.71124,484.66365 384.06671,484.81339 C 383.42218,484.96313 382.82322,485.18774 382.26984,485.48721 L 382.26984,482.82120 C 383.01853,482.63892 383.77048,482.50220 384.52570,482.41104 C 385.28090,482.31340 386.03611,482.26457 386.79132,482.26456 C 388.76397,482.26457 390.18649,482.65519 391.05890,483.43643 C 391.93779,484.21118 392.37725,485.47420 392.37726,487.22549 M 403.77374,485.50674 C 403.46774,485.36352 403.16175,485.25936 402.85577,485.19424 C 402.55629,485.12264 402.25355,485.08683 401.94757,485.08682 C 401.04913,485.08683 400.35577,485.37654 399.86749,485.95596 C 399.38572,486.52889 399.14483,487.35245 399.14484,488.42667 L 399.14484,493.46573 L 395.64874,493.46573 L 395.64874,482.52823 L 399.14484,482.52823 L 399.14484,484.32510 C 399.59405,483.60897 400.10837,483.08813 400.68781,482.76260 C 401.27374,482.43058 401.97360,482.26457 402.78741,482.26456 C 402.90459,482.26457 403.03155,482.27108 403.16827,482.28409 C 403.30498,482.29061 403.50355,482.31014 403.76398,482.34268 L 403.77374,485.50674 M 416.44952,487.96768 L 416.44952,488.96378 L 408.27570,488.96378 C 408.36033,489.78409 408.65655,490.39933 409.16437,490.80948 C 409.67217,491.21964 410.38181,491.42472 411.29327,491.42471 C 412.02894,491.42472 412.78090,491.31729 413.54913,491.10245 C 414.32386,490.88110 415.11813,490.54907 415.93195,490.10635 L 415.93195,492.80167 C 415.10511,493.11417 414.27829,493.34854 413.45148,493.50479 C 412.62465,493.66755 411.79782,493.74893 410.97101,493.74893 C 408.99184,493.74893 407.45212,493.24763 406.35187,492.24503 C 405.25812,491.23591 404.71124,489.82315 404.71124,488.00674 C 404.71124,486.22290 405.24835,484.81990 406.32257,483.79776 C 407.40330,482.77564 408.88767,482.26457 410.77570,482.26456 C 412.49444,482.26457 413.86813,482.78215 414.89679,483.81729 C 415.93193,484.85246 416.44951,486.23592 416.44952,487.96768 M 412.85577,486.80557 C 412.85576,486.14152 412.66045,485.60766 412.26984,485.20401 C 411.88571,484.79386 411.38116,484.58878 410.75616,484.58878 C 410.07907,484.58878 409.52895,484.78084 409.10577,485.16495 C 408.68259,485.54256 408.41892,486.08943 408.31476,486.80557 L 412.85577,486.80557 M 426.52765,484.12979 L 426.52765,478.27042 L 430.04327,478.27042 L 430.04327,493.46573 L 426.52765,493.46573 L 426.52765,491.88370 C 426.04587,492.52823 425.51527,493.00023 424.93585,493.29971 C 424.35642,493.59919 423.68585,493.74893 422.92413,493.74893 C 421.57647,493.74893 420.46970,493.21508 419.60382,492.14737 C 418.73793,491.07315 418.30499,489.69295 418.30499,488.00674 C 418.30499,486.32055 418.73793,484.94360 419.60382,483.87589 C 420.46970,482.80168 421.57647,482.26457 422.92413,482.26456 C 423.67934,482.26457 424.34665,482.41756 424.92609,482.72354 C 425.51202,483.02303 426.04587,483.49178 426.52765,484.12979 M 424.22296,491.20987 C 424.97165,491.20987 425.54131,490.93643 425.93195,490.38956 C 426.32907,489.84269 426.52764,489.04842 426.52765,488.00674 C 426.52764,486.96508 426.32907,486.17081 425.93195,485.62393 C 425.54131,485.07707 424.97165,484.80363 424.22296,484.80362 C 423.48077,484.80363 422.91111,485.07707 422.51398,485.62393 C 422.12335,486.17081 421.92804,486.96508 421.92804,488.00674 C 421.92804,489.04842 422.12335,489.84269 422.51398,490.38956 C 422.91111,490.93643 423.48077,491.20987 424.22296,491.20987 M 345.49249,503.88565 L 349.27179,503.88565 L 353.13898,514.64737 L 356.99640,503.88565 L 360.77570,503.88565 L 355.37531,518.46573 L 350.89288,518.46573 L 345.49249,503.88565 M 366.35187,513.54385 C 365.62270,513.54386 365.07257,513.66756 364.70148,513.91495 C 364.33689,514.16235 364.15460,514.52693 364.15460,515.00870 C 364.15460,515.45141 364.30108,515.79972 364.59406,516.05362 C 364.89353,516.30102 365.30694,516.42472 365.83429,516.42471 C 366.49183,516.42472 367.04522,516.19034 367.49445,515.72159 C 367.94366,515.24633 368.16827,514.65388 368.16827,513.94424 L 368.16827,513.54385 L 366.35187,513.54385 M 371.69366,512.22549 L 371.69366,518.46573 L 368.16827,518.46573 L 368.16827,516.84464 C 367.69952,517.50870 367.17217,517.99372 366.58624,518.29971 C 366.00030,518.59919 365.28741,518.74893 364.44757,518.74893 C 363.31475,518.74893 362.39353,518.42016 361.68390,517.76260 C 360.98077,517.09854 360.62921,516.23917 360.62921,515.18448 C 360.62921,513.90193 361.06866,512.96118 361.94757,512.36221 C 362.83298,511.76326 364.21970,511.46378 366.10773,511.46378 L 368.16827,511.46378 L 368.16827,511.19034 C 368.16827,510.63696 367.95017,510.23332 367.51398,509.97940 C 367.07777,509.71899 366.39743,509.58878 365.47296,509.58878 C 364.72426,509.58878 364.02764,509.66365 363.38312,509.81339 C 362.73858,509.96313 362.13963,510.18774 361.58624,510.48721 L 361.58624,507.82120 C 362.33494,507.63892 363.08689,507.50220 363.84210,507.41104 C 364.59731,507.31340 365.35251,507.26457 366.10773,507.26456 C 368.08037,507.26457 369.50290,507.65519 370.37531,508.43643 C 371.25420,509.21118 371.69365,510.47420 371.69366,512.22549 M 374.96515,503.27042 L 378.46124,503.27042 L 378.46124,518.46573 L 374.96515,518.46573 L 374.96515,503.27042 M 381.72296,514.20792 L 381.72296,507.52823 L 385.23859,507.52823 L 385.23859,508.62198 C 385.23858,509.21444 385.23533,509.95988 385.22882,510.85831 C 385.22231,511.75024 385.21905,512.34594 385.21906,512.64542 C 385.21905,513.52433 385.24184,514.15909 385.28741,514.54971 C 385.33298,514.93383 385.41111,515.21378 385.52179,515.38956 C 385.66501,515.61742 385.85056,515.79321 386.07843,515.91690 C 386.31280,516.04060 386.57973,516.10245 386.87921,516.10245 C 387.60837,516.10245 388.18129,515.82250 388.59796,515.26260 C 389.01462,514.70271 389.22295,513.92472 389.22296,512.92862 L 389.22296,507.52823 L 392.71906,507.52823 L 392.71906,518.46573 L 389.22296,518.46573 L 389.22296,516.88370 C 388.69561,517.52172 388.13571,517.99372 387.54327,518.29971 C 386.95733,518.59919 386.30954,518.74893 385.59991,518.74893 C 384.33689,518.74893 383.37335,518.36156 382.70929,517.58682 C 382.05174,516.81208 381.72296,515.68578 381.72296,514.20792 M 407.01593,512.96768 L 407.01593,513.96378 L 398.84210,513.96378 C 398.92673,514.78409 399.22296,515.39933 399.73077,515.80948 C 400.23858,516.21964 400.94822,516.42472 401.85968,516.42471 C 402.59535,516.42472 403.34730,516.31729 404.11554,516.10245 C 404.89027,515.88110 405.68454,515.54907 406.49835,515.10635 L 406.49835,517.80167 C 405.67152,518.11417 404.84470,518.34854 404.01788,518.50479 C 403.19105,518.66755 402.36423,518.74893 401.53741,518.74893 C 399.55824,518.74893 398.01853,518.24763 396.91827,517.24503 C 395.82452,516.23591 395.27765,514.82315 395.27765,513.00674 C 395.27765,511.22290 395.81476,509.81990 396.88898,508.79776 C 397.96970,507.77564 399.45408,507.26457 401.34210,507.26456 C 403.06084,507.26457 404.43454,507.78215 405.46320,508.81729 C 406.49834,509.85246 407.01592,511.23592 407.01593,512.96768 M 403.42218,511.80557 C 403.42217,511.14152 403.22686,510.60766 402.83624,510.20401 C 402.45212,509.79386 401.94756,509.58878 401.32257,509.58878 C 400.64548,509.58878 400.09535,509.78084 399.67218,510.16495 C 399.24900,510.54256 398.98533,511.08943 398.88116,511.80557 L 403.42218,511.80557 M 418.19757,507.87003 L 418.19757,510.52628 C 417.44886,510.21378 416.72621,509.97941 416.02960,509.82315 C 415.33298,509.66691 414.67543,509.58878 414.05695,509.58878 C 413.39288,509.58878 412.89809,509.67342 412.57257,509.84268 C 412.25356,510.00545 412.09405,510.25936 412.09406,510.60440 C 412.09405,510.88436 412.21449,511.09920 412.45538,511.24893 C 412.70277,511.39868 413.14223,511.50936 413.77374,511.58096 L 414.38898,511.66885 C 416.17933,511.89672 417.38376,512.27107 418.00226,512.79190 C 418.62074,513.31274 418.92998,514.12980 418.92999,515.24307 C 418.92998,516.40844 418.50029,517.28409 417.64093,517.87003 C 416.78155,518.45596 415.49900,518.74893 413.79327,518.74893 C 413.07061,518.74893 412.32192,518.69034 411.54718,518.57315 C 410.77895,518.46247 409.98793,518.29320 409.17413,518.06534 L 409.17413,515.40909 C 409.87075,515.74763 410.58364,516.00154 411.31281,516.17081 C 412.04848,516.34008 412.79392,516.42472 413.54913,516.42471 C 414.23272,516.42472 414.74704,516.33031 415.09210,516.14151 C 415.43715,515.95271 415.60967,515.67276 415.60968,515.30167 C 415.60967,514.98917 415.48923,514.75805 415.24835,514.60831 C 415.01397,514.45206 414.54197,514.33162 413.83234,514.24698 L 413.21710,514.16885 C 411.66111,513.97355 410.57062,513.61222 409.94562,513.08487 C 409.32062,512.55753 409.00812,511.75675 409.00812,510.68253 C 409.00812,509.52368 409.40525,508.66431 410.19952,508.10440 C 410.99379,507.54452 412.21124,507.26457 413.85187,507.26456 C 414.49639,507.26457 415.17348,507.31340 415.88312,507.41104 C 416.59274,507.50871 417.36423,507.66170 418.19757,507.87003 M 421.44952,521.10245 C 422.28285,519.55297 422.90785,518.03930 423.32452,516.56143 C 423.74119,515.08357 423.94952,513.62524 423.94952,512.18643 C 423.94952,510.74764 423.74119,509.29256 423.32452,507.82120 C 422.90785,506.34335 422.28285,504.83293 421.44952,503.28995 L 424.34991,503.28995 C 425.33949,504.88501 426.07191,506.41496 426.54718,507.87979 C 427.02894,509.33813 427.26983,510.78019 427.26984,512.20596 C 427.26983,513.63175 427.03220,515.07055 426.55695,516.52237 C 426.08168,517.96768 425.34600,519.49437 424.34991,521.10245 L 421.44952,521.10245" id="text1324"/>
    <path transform="matrix(0.720548,0.000000,0.000000,0.720548,-102.3596,-19.83540)" style="fill:#ffffff;fill-opacity:1.0000000;fill-rule:evenodd;stroke:#000000;stroke-width:2.7756653;stroke-linecap:round;stroke-linejoin:round;stroke-miterlimit:4.0000000;stroke-dashoffset:0.0000000;stroke-opacity:1.0000000" d="M 472.75140,493.74783 C 472.75140,555.08430 422.97108,604.86462 361.63461,604.86462 C 300.29815,604.86462 250.51783,555.08430 250.51783,493.74783 C 250.51783,432.41137 300.29815,382.63105 361.63461,382.63105 C 422.97108,382.63105 472.75140,432.41137 472.75140,493.74783 z " id="path2069"/>
    <path style="font-size:28.000000px;font-style:normal;font-variant:normal;font-weight:bold;font-stretch:normal;text-align:center;line-height:125.00000%;writing-mode:lr-tb;text-anchor:middle;fill:#000000;fill-opacity:1.0000000;stroke:none;stroke-width:1.0000000pt;stroke-linecap:butt;stroke-linejoin:miter;stroke-opacity:1.0000000;font-family:Bitstream Vera Sans" d="M 132.46452,326.60257 L 132.46452,330.92288 C 131.34341,330.42160 130.24967,330.04334 129.18327,329.78812 C 128.11685,329.53292 127.10969,329.40532 126.16179,329.40530 C 124.90397,329.40532 123.97428,329.57850 123.37273,329.92484 C 122.77116,330.27121 122.47038,330.80897 122.47038,331.53812 C 122.47038,332.08501 122.67090,332.51339 123.07195,332.82327 C 123.48209,333.12407 124.22037,333.38383 125.28679,333.60257 L 127.52898,334.05374 C 129.79849,334.50948 131.41177,335.20219 132.36882,336.13187 C 133.32583,337.06156 133.80435,338.38318 133.80437,340.09671 C 133.80435,342.34802 133.13443,344.02510 131.79460,345.12796 C 130.46386,346.22171 128.42675,346.76858 125.68327,346.76859 C 124.38899,346.76858 123.09017,346.64554 121.78679,346.39944 C 120.48340,346.15335 119.18001,345.78877 117.87663,345.30569 L 117.87663,340.86234 C 119.18001,341.55505 120.43783,342.07914 121.65007,342.43460 C 122.87142,342.78096 124.04720,342.95414 125.17741,342.95413 C 126.32584,342.95414 127.20540,342.76273 127.81609,342.37991 C 128.42675,341.99711 128.73209,341.45023 128.73210,340.73929 C 128.73209,340.10127 128.52245,339.60909 128.10320,339.26273 C 127.69303,338.91638 126.86816,338.60648 125.62859,338.33304 L 123.59148,337.88187 C 121.54980,337.44438 120.05501,336.74711 119.10710,335.79007 C 118.16830,334.83305 117.69890,333.54334 117.69890,331.92093 C 117.69890,329.88839 118.35515,328.32524 119.66765,327.23148 C 120.98014,326.13775 122.86686,325.59087 125.32780,325.59085 C 126.44889,325.59087 127.60188,325.67746 128.78679,325.85062 C 129.97167,326.01470 131.19758,326.26535 132.46452,326.60257 M 138.22038,325.09866 L 143.11491,325.09866 L 143.11491,336.67874 L 148.74773,331.05960 L 154.43523,331.05960 L 146.95671,338.08694 L 155.02312,346.37210 L 149.08952,346.37210 L 143.11491,339.98734 L 143.11491,346.37210 L 138.22038,346.37210 L 138.22038,325.09866 M 156.86882,331.05960 L 161.76335,331.05960 L 161.76335,346.37210 L 156.86882,346.37210 L 156.86882,331.05960 M 156.86882,325.09866 L 161.76335,325.09866 L 161.76335,329.09085 L 156.86882,329.09085 L 156.86882,325.09866 M 166.49382,325.09866 L 171.38835,325.09866 L 171.38835,346.37210 L 166.49382,346.37210 L 166.49382,325.09866 M 176.11882,325.09866 L 181.01335,325.09866 L 181.01335,346.37210 L 176.11882,346.37210 L 176.11882,325.09866 M 197.70671,331.53812 L 197.70671,335.25687 C 196.65852,334.81938 195.64680,334.49125 194.67155,334.27249 C 193.69628,334.05375 192.77571,333.94438 191.90984,333.94437 C 190.98014,333.94438 190.28743,334.06287 189.83171,334.29984 C 189.38509,334.52771 189.16178,334.88318 189.16179,335.36624 C 189.16178,335.75818 189.33040,336.05896 189.66765,336.26859 C 190.01400,336.47823 190.62923,336.63318 191.51335,336.73343 L 192.37468,336.85648 C 194.88118,337.17550 196.56737,337.69958 197.43327,338.42874 C 198.29914,339.15792 198.73209,340.30179 198.73210,341.86038 C 198.73209,343.49190 198.13052,344.71781 196.92741,345.53812 C 195.72428,346.35843 193.92871,346.76858 191.54070,346.76859 C 190.52897,346.76858 189.48079,346.68655 188.39616,346.52249 C 187.32064,346.36754 186.21322,346.13056 185.07390,345.81155 L 185.07390,342.09280 C 186.04916,342.56677 187.04720,342.92223 188.06804,343.15921 C 189.09798,343.39619 190.14160,343.51468 191.19890,343.51468 C 192.15592,343.51468 192.87597,343.38252 193.35905,343.11819 C 193.84212,342.85388 194.08365,342.46195 194.08366,341.94241 C 194.08365,341.50492 193.91503,341.18135 193.57780,340.97171 C 193.24967,340.75297 192.58886,340.58435 191.59538,340.46585 L 190.73405,340.35648 C 188.55566,340.08304 187.02897,339.57719 186.15398,338.83890 C 185.27897,338.10062 184.84147,336.97953 184.84148,335.47562 C 184.84147,333.85323 185.39746,332.65011 186.50945,331.86624 C 187.62142,331.08240 189.32585,330.69048 191.62273,330.69046 C 192.52506,330.69048 193.47298,330.75884 194.46648,330.89554 C 195.45995,331.03227 196.54003,331.24646 197.70671,331.53812" id="text2071"/>
    <path transform="matrix(0.720548,0.000000,0.000000,0.720548,-102.3596,233.0217)" style="fill:#ffffff;fill-opacity:1.0000000;fill-rule:evenodd;stroke:#000000;stroke-width:2.7756653;stroke-linecap:round;stroke-linejoin:round;stroke-miterlimit:4.0000000;stroke-dashoffset:0.0000000;stroke-opacity:1.0000000" d="M 472.75140,493.74783 C 472.75140,555.08430 422.97108,604.86462 361.63461,604.86462 C 300.29815,604.86462 250.51783,555.08430 250.51783,493.74783 C 250.51783,432.41137 300.29815,382.63105 361.63461,382.63105 C 422.97108,382.63105 472.75140,432.41137 472.75140,493.74783 z " id="path2821"/>
    <path style="font-size:28.000000px;font-style:normal;font-variant:normal;font-weight:bold;font-stretch:normal;text-align:center;line-height:125.00000%;writing-mode:lr-tb;text-anchor:middle;fill:#000000;fill-opacity:1.0000000;stroke:none;stroke-width:1.0000000pt;stroke-linecap:butt;stroke-linejoin:miter;stroke-opacity:1.0000000;font-family:Bitstream Vera Sans" d="M 134.43327,576.63641 L 134.43327,580.95673 C 133.31216,580.45544 132.21842,580.07719 131.15202,579.82196 C 130.08560,579.56677 129.07844,579.43916 128.13054,579.43915 C 126.87272,579.43916 125.94303,579.61234 125.34148,579.95868 C 124.73991,580.30505 124.43913,580.84281 124.43913,581.57196 C 124.43913,582.11885 124.63965,582.54723 125.04070,582.85712 C 125.45084,583.15791 126.18912,583.41768 127.25554,583.63641 L 129.49773,584.08759 C 131.76724,584.54333 133.38052,585.23603 134.33757,586.16571 C 135.29458,587.09541 135.77310,588.41702 135.77312,590.13055 C 135.77310,592.38186 135.10318,594.05894 133.76335,595.16180 C 132.43261,596.25555 130.39550,596.80243 127.65202,596.80243 C 126.35774,596.80243 125.05892,596.67938 123.75554,596.43329 C 122.45215,596.18720 121.14876,595.82261 119.84538,595.33954 L 119.84538,590.89618 C 121.14876,591.58889 122.40658,592.11298 123.61882,592.46844 C 124.84017,592.81480 126.01595,592.98798 127.14616,592.98798 C 128.29459,592.98798 129.17415,592.79657 129.78484,592.41376 C 130.39550,592.03095 130.70084,591.48407 130.70085,590.77313 C 130.70084,590.13512 130.49120,589.64293 130.07195,589.29657 C 129.66178,588.95022 128.83691,588.64033 127.59734,588.36688 L 125.56023,587.91571 C 123.51855,587.47822 122.02376,586.78095 121.07585,585.82391 C 120.13705,584.86689 119.66765,583.57718 119.66765,581.95477 C 119.66765,579.92224 120.32390,578.35909 121.63640,577.26532 C 122.94889,576.17159 124.83561,575.62472 127.29655,575.62469 C 128.41764,575.62472 129.57063,575.71130 130.75554,575.88446 C 131.94042,576.04854 133.16633,576.29919 134.43327,576.63641 M 145.53484,576.74579 L 145.53484,581.09344 L 150.57976,581.09344 L 150.57976,584.59344 L 145.53484,584.59344 L 145.53484,591.08759 C 145.53483,591.79853 145.67610,592.28160 145.95866,592.53680 C 146.24121,592.78290 146.80175,592.90595 147.64030,592.90594 L 150.15593,592.90594 L 150.15593,596.40594 L 145.95866,596.40594 C 144.02637,596.40594 142.65462,596.00490 141.84343,595.20282 C 141.04134,594.39162 140.64030,593.01988 140.64030,591.08759 L 140.64030,584.59344 L 138.20671,584.59344 L 138.20671,581.09344 L 140.64030,581.09344 L 140.64030,576.74579 L 145.53484,576.74579 M 151.57780,581.09344 L 156.47234,581.09344 L 160.58757,591.48407 L 164.08757,581.09344 L 168.98210,581.09344 L 162.54265,597.85516 C 161.89550,599.55959 161.13899,600.74904 160.27312,601.42352 C 159.41634,602.10711 158.28157,602.44891 156.86882,602.44891 L 154.03874,602.44891 L 154.03874,599.23602 L 155.56999,599.23602 C 156.39941,599.23602 157.00098,599.10386 157.37468,598.83954 C 157.75749,598.57521 158.05371,598.10126 158.26335,597.41766 L 158.40007,596.99384 L 151.57780,581.09344 M 171.85320,575.13251 L 176.74773,575.13251 L 176.74773,596.40594 L 171.85320,596.40594 L 171.85320,575.13251 M 196.76335,588.70868 L 196.76335,590.10321 L 185.31999,590.10321 C 185.43848,591.25165 185.85319,592.11298 186.56413,592.68719 C 187.27506,593.26142 188.26855,593.54853 189.54460,593.54852 C 190.57454,593.54853 191.62727,593.39814 192.70280,593.09735 C 193.78743,592.78746 194.89940,592.32262 196.03874,591.70282 L 196.03874,595.47626 C 194.88117,595.91376 193.72362,596.24188 192.56609,596.46063 C 191.40852,596.68850 190.25097,596.80243 189.09343,596.80243 C 186.32259,596.80243 184.16699,596.10061 182.62663,594.69696 C 181.09538,593.28420 180.32976,591.30634 180.32976,588.76337 C 180.32976,586.26598 181.08171,584.30179 182.58562,582.87079 C 184.09863,581.43981 186.17676,580.72432 188.81999,580.72430 C 191.22623,580.72432 193.14941,581.44893 194.58952,582.89813 C 196.03873,584.34736 196.76333,586.28421 196.76335,588.70868 M 191.73210,587.08173 C 191.73209,586.15205 191.45865,585.40465 190.91179,584.83954 C 190.37402,584.26533 189.66764,583.97822 188.79265,583.97821 C 187.84472,583.97822 187.07454,584.24710 186.48210,584.78485 C 185.88965,585.31351 185.52051,586.07913 185.37468,587.08173 L 191.73210,587.08173" id="text2823"/>
    <path transform="matrix(0.720548,0.000000,0.000000,0.720548,347.6404,-19.83540)" style="fill:#ffffff;fill-opacity:1.0000000;fill-rule:evenodd;stroke:#000000;stroke-width:2.7756653;stroke-linecap:round;stroke-linejoin:round;stroke-miterlimit:4.0000000;stroke-dashoffset:0.0000000;stroke-opacity:1.0000000" d="M 472.75140,493.74783 C 472.75140,555.08430 422.97108,604.86462 361.63461,604.86462 C 300.29815,604.86462 250.51783,555.08430 250.51783,493.74783 C 250.51783,432.41137 300.29815,382.63105 361.63461,382.63105 C 422.97108,382.63105 472.75140,432.41137 472.75140,493.74783 z " id="path2809"/>
    <path style="font-size:24.000000px;font-style:normal;font-variant:normal;font-weight:bold;font-stretch:normal;text-align:center;line-height:125.00000%;writing-mode:lr-tb;text-anchor:middle;fill:#000000;fill-opacity:1.0000000;stroke:none;stroke-width:1.0000000pt;stroke-linecap:butt;stroke-linejoin:miter;stroke-opacity:1.0000000;font-family:Bitstream Vera Sans" d="M 558.23895,327.72464 L 558.23895,331.42776 C 557.27800,330.99809 556.34050,330.67387 555.42645,330.45511 C 554.51238,330.23637 553.64910,330.12700 552.83661,330.12698 C 551.75848,330.12700 550.96160,330.27544 550.44598,330.57230 C 549.93035,330.86918 549.67254,331.33012 549.67255,331.95511 C 549.67254,332.42387 549.84442,332.79106 550.18817,333.05667 C 550.53973,333.31449 551.17254,333.53715 552.08661,333.72464 L 554.00848,334.11136 C 555.95378,334.50199 557.33660,335.09574 558.15692,335.89261 C 558.97722,336.68949 559.38737,337.82230 559.38739,339.29105 C 559.38737,341.22074 558.81316,342.65824 557.66473,343.60355 C 556.52410,344.54105 554.77800,345.00980 552.42645,345.00980 C 551.31707,345.00980 550.20379,344.90433 549.08661,344.69339 C 547.96942,344.48245 546.85223,344.16995 545.73505,343.75589 L 545.73505,339.94730 C 546.85223,340.54105 547.93035,340.99027 548.96942,341.29495 C 550.01629,341.59183 551.02410,341.74027 551.99286,341.74026 C 552.97722,341.74027 553.73113,341.57621 554.25458,341.24808 C 554.77800,340.91996 555.03972,340.45121 555.03973,339.84183 C 555.03972,339.29496 554.86004,338.87308 554.50067,338.57620 C 554.14910,338.27933 553.44207,338.01371 552.37958,337.77933 L 550.63348,337.39261 C 548.88348,337.01762 547.60223,336.41996 546.78973,335.59964 C 545.98504,334.77934 545.58270,333.67387 545.58270,332.28323 C 545.58270,330.54106 546.14520,329.20122 547.27020,328.26370 C 548.39520,327.32622 550.01238,326.85747 552.12177,326.85745 C 553.08269,326.85747 554.07097,326.93169 555.08661,327.08011 C 556.10222,327.22075 557.15300,327.43559 558.23895,327.72464 M 567.75458,327.81839 L 567.75458,331.54495 L 572.07880,331.54495 L 572.07880,334.54495 L 567.75458,334.54495 L 567.75458,340.11136 C 567.75457,340.72074 567.87566,341.13480 568.11786,341.35355 C 568.36004,341.56449 568.84051,341.66996 569.55927,341.66995 L 571.71552,341.66995 L 571.71552,344.66995 L 568.11786,344.66995 C 566.46160,344.66995 565.28582,344.32620 564.59052,343.63870 C 563.90301,342.94339 563.55926,341.76761 563.55927,340.11136 L 563.55927,334.54495 L 561.47333,334.54495 L 561.47333,331.54495 L 563.55927,331.54495 L 563.55927,327.81839 L 567.75458,327.81839 M 584.40692,335.11917 C 584.03972,334.94731 583.67254,334.82231 583.30536,334.74417 C 582.94597,334.65824 582.58269,334.61527 582.21552,334.61526 C 581.13738,334.61527 580.30535,334.96293 579.71942,335.65823 C 579.14129,336.34574 578.85223,337.33402 578.85223,338.62308 L 578.85223,344.66995 L 574.65692,344.66995 L 574.65692,331.54495 L 578.85223,331.54495 L 578.85223,333.70120 C 579.39129,332.84184 580.00848,332.21684 580.70380,331.82620 C 581.40691,331.42778 582.24676,331.22856 583.22333,331.22855 C 583.36394,331.22856 583.51629,331.23637 583.68036,331.25198 C 583.84441,331.25981 584.08269,331.28325 584.39520,331.32230 L 584.40692,335.11917 M 586.37567,339.56058 L 586.37567,331.54495 L 590.59442,331.54495 L 590.59442,332.85745 C 590.59442,333.56840 590.59051,334.46293 590.58270,335.54105 C 590.57488,336.61137 590.57098,337.32621 590.57098,337.68558 C 590.57098,338.74027 590.59832,339.50199 590.65302,339.97073 C 590.70770,340.43168 590.80145,340.76761 590.93427,340.97855 C 591.10613,341.25199 591.32879,341.46292 591.60223,341.61136 C 591.88348,341.75980 592.20379,341.83402 592.56317,341.83401 C 593.43816,341.83402 594.12566,341.49808 594.62567,340.82620 C 595.12566,340.15433 595.37566,339.22074 595.37567,338.02542 L 595.37567,331.54495 L 599.57098,331.54495 L 599.57098,344.66995 L 595.37567,344.66995 L 595.37567,342.77151 C 594.74285,343.53714 594.07097,344.10355 593.36005,344.47073 C 592.65691,344.83011 591.87957,345.00980 591.02802,345.00980 C 589.51239,345.00980 588.35614,344.54495 587.55927,343.61526 C 586.77020,342.68558 586.37567,341.33402 586.37567,339.56058 M 614.23114,331.95511 L 614.23114,335.37698 C 613.66082,334.98637 613.08660,334.69731 612.50848,334.50980 C 611.93816,334.32231 611.34441,334.22856 610.72723,334.22855 C 609.55535,334.22856 608.64129,334.57231 607.98505,335.25980 C 607.33660,335.93949 607.01238,336.89262 607.01239,338.11917 C 607.01238,339.34574 607.33660,340.30277 607.98505,340.99026 C 608.64129,341.66996 609.55535,342.00980 610.72723,342.00980 C 611.38347,342.00980 612.00457,341.91214 612.59052,341.71683 C 613.18425,341.52152 613.73113,341.23246 614.23114,340.84964 L 614.23114,344.28323 C 613.57488,344.52542 612.90691,344.70511 612.22723,344.82230 C 611.55535,344.94730 610.87957,345.00980 610.19989,345.00980 C 607.83270,345.00980 605.98114,344.40433 604.64520,343.19339 C 603.30926,341.97464 602.64130,340.28324 602.64130,338.11917 C 602.64130,335.95512 603.30926,334.26762 604.64520,333.05667 C 605.98114,331.83793 607.83270,331.22856 610.19989,331.22855 C 610.88738,331.22856 611.56316,331.29106 612.22723,331.41605 C 612.89910,331.53325 613.56707,331.71293 614.23114,331.95511 M 622.45770,327.81839 L 622.45770,331.54495 L 626.78192,331.54495 L 626.78192,334.54495 L 622.45770,334.54495 L 622.45770,340.11136 C 622.45770,340.72074 622.57879,341.13480 622.82098,341.35355 C 623.06316,341.56449 623.54363,341.66996 624.26239,341.66995 L 626.41864,341.66995 L 626.41864,344.66995 L 622.82098,344.66995 C 621.16473,344.66995 619.98895,344.32620 619.29364,343.63870 C 618.60614,342.94339 618.26239,341.76761 618.26239,340.11136 L 618.26239,334.54495 L 616.17645,334.54495 L 616.17645,331.54495 L 618.26239,331.54495 L 618.26239,327.81839 L 622.45770,327.81839 M 629.21942,339.56058 L 629.21942,331.54495 L 633.43817,331.54495 L 633.43817,332.85745 C 633.43817,333.56840 633.43426,334.46293 633.42645,335.54105 C 633.41863,336.61137 633.41473,337.32621 633.41473,337.68558 C 633.41473,338.74027 633.44207,339.50199 633.49677,339.97073 C 633.55145,340.43168 633.64520,340.76761 633.77802,340.97855 C 633.94988,341.25199 634.17254,341.46292 634.44598,341.61136 C 634.72723,341.75980 635.04754,341.83402 635.40692,341.83401 C 636.28191,341.83402 636.96941,341.49808 637.46942,340.82620 C 637.96941,340.15433 638.21941,339.22074 638.21942,338.02542 L 638.21942,331.54495 L 642.41473,331.54495 L 642.41473,344.66995 L 638.21942,344.66995 L 638.21942,342.77151 C 637.58660,343.53714 636.91472,344.10355 636.20380,344.47073 C 635.50066,344.83011 634.72332,345.00980 633.87177,345.00980 C 632.35614,345.00980 631.19989,344.54495 630.40302,343.61526 C 629.61395,342.68558 629.21942,341.33402 629.21942,339.56058 M 656.21942,335.11917 C 655.85222,334.94731 655.48504,334.82231 655.11786,334.74417 C 654.75847,334.65824 654.39519,334.61527 654.02802,334.61526 C 652.94988,334.61527 652.11785,334.96293 651.53192,335.65823 C 650.95379,336.34574 650.66473,337.33402 650.66473,338.62308 L 650.66473,344.66995 L 646.46942,344.66995 L 646.46942,331.54495 L 650.66473,331.54495 L 650.66473,333.70120 C 651.20379,332.84184 651.82098,332.21684 652.51630,331.82620 C 653.21941,331.42778 654.05926,331.22856 655.03583,331.22855 C 655.17644,331.22856 655.32879,331.23637 655.49286,331.25198 C 655.65691,331.25981 655.89519,331.28325 656.20770,331.32230 L 656.21942,335.11917 M 671.43036,338.07230 L 671.43036,339.26761 L 661.62177,339.26761 C 661.72332,340.25199 662.07879,340.99027 662.68817,341.48245 C 663.29754,341.97464 664.14910,342.22074 665.24286,342.22073 C 666.12566,342.22074 667.02800,342.09183 667.94989,341.83401 C 668.87957,341.56839 669.83269,341.16996 670.80927,340.63870 L 670.80927,343.87308 C 669.81706,344.24808 668.82488,344.52933 667.83270,344.71683 C 666.84050,344.91214 665.84832,345.00980 664.85614,345.00980 C 662.48113,345.00980 660.63348,344.40823 659.31317,343.20511 C 658.00067,341.99417 657.34442,340.29886 657.34442,338.11917 C 657.34442,335.97855 657.98895,334.29496 659.27802,333.06839 C 660.57489,331.84184 662.35613,331.22856 664.62177,331.22855 C 666.68425,331.22856 668.33269,331.84965 669.56708,333.09183 C 670.80925,334.33403 671.43034,335.99418 671.43036,338.07230 M 667.11786,336.67776 C 667.11785,335.88090 666.88347,335.24027 666.41473,334.75589 C 665.95379,334.26371 665.34832,334.01762 664.59833,334.01761 C 663.78582,334.01762 663.12566,334.24809 662.61786,334.70901 C 662.11004,335.16215 661.79363,335.81840 661.66864,336.67776 L 667.11786,336.67776" id="text2811"/>
    <path transform="matrix(0.720548,0.000000,0.000000,0.720548,347.6404,233.0217)" style="fill:#ffffff;fill-opacity:1.0000000;fill-rule:evenodd;stroke:#000000;stroke-width:2.7756653;stroke-linecap:round;stroke-linejoin:round;stroke-miterlimit:4.0000000;stroke-dashoffset:0.0000000;stroke-opacity:1.0000000" d="M 472.75140,493.74783 C 472.75140,555.08430 422.97108,604.86462 361.63461,604.86462 C 300.29815,604.86462 250.51783,555.08430 250.51783,493.74783 C 250.51783,432.41137 300.29815,382.63105 361.63461,382.63105 C 422.97108,382.63105 472.75140,432.41137 472.75140,493.74783 z " id="path2833"/>
    <path style="font-size:28.000000px;font-style:normal;font-variant:normal;font-weight:bold;font-stretch:normal;text-align:center;line-height:125.00000%;writing-mode:lr-tb;text-anchor:middle;fill:#000000;fill-opacity:1.0000000;stroke:none;stroke-width:1.0000000pt;stroke-linecap:butt;stroke-linejoin:miter;stroke-opacity:1.0000000;font-family:Bitstream Vera Sans" d="M 558.01923,576.39032 L 558.01923,580.71063 C 556.89812,580.20935 555.80437,579.83109 554.73798,579.57587 C 553.67156,579.32068 552.66440,579.19307 551.71649,579.19305 C 550.45867,579.19307 549.52898,579.36625 548.92743,579.71259 C 548.32586,580.05896 548.02508,580.59672 548.02509,581.32587 C 548.02508,581.87276 548.22560,582.30114 548.62665,582.61102 C 549.03680,582.91182 549.77508,583.17158 550.84149,583.39032 L 553.08368,583.84149 C 555.35320,584.29723 556.96648,584.98994 557.92352,585.91962 C 558.88054,586.84931 559.35905,588.17093 559.35907,589.88446 C 559.35905,592.13577 558.68913,593.81285 557.34930,594.91571 C 556.01856,596.00946 553.98145,596.55634 551.23798,596.55634 C 549.94370,596.55634 548.64487,596.43329 547.34149,596.18719 C 546.03810,595.94110 544.73472,595.57652 543.43134,595.09344 L 543.43134,590.65009 C 544.73472,591.34280 545.99253,591.86689 547.20477,592.22235 C 548.42612,592.56871 549.60190,592.74189 550.73212,592.74188 C 551.88054,592.74189 552.76010,592.55048 553.37079,592.16766 C 553.98145,591.78486 554.28679,591.23798 554.28680,590.52704 C 554.28679,589.88902 554.07716,589.39684 553.65790,589.05048 C 553.24773,588.70413 552.42286,588.39423 551.18329,588.12079 L 549.14618,587.66962 C 547.10451,587.23213 545.60972,586.53486 544.66180,585.57782 C 543.72300,584.62080 543.25360,583.33109 543.25360,581.70868 C 543.25360,579.67614 543.90985,578.11299 545.22235,577.01923 C 546.53485,575.92550 548.42156,575.37862 550.88251,575.37860 C 552.00359,575.37862 553.15658,575.46521 554.34149,575.63837 C 555.52637,575.80245 556.75228,576.05310 558.01923,576.39032 M 561.76532,580.84735 L 566.65985,580.84735 L 570.77509,591.23798 L 574.27509,580.84735 L 579.16962,580.84735 L 572.73016,597.60907 C 572.08302,599.31349 571.32651,600.50295 570.46063,601.17743 C 569.60385,601.86102 568.46909,602.20281 567.05634,602.20282 L 564.22626,602.20282 L 564.22626,598.98993 L 565.75751,598.98993 C 566.58693,598.98993 567.18849,598.85777 567.56219,598.59344 C 567.94500,598.32912 568.24122,597.85516 568.45087,597.17157 L 568.58759,596.74774 L 561.76532,580.84735 M 594.00360,581.32587 L 594.00360,585.04462 C 592.95541,584.60713 591.94369,584.27900 590.96844,584.06024 C 589.99317,583.84150 589.07260,583.73213 588.20673,583.73212 C 587.27703,583.73213 586.58432,583.85062 586.12860,584.08759 C 585.68198,584.31546 585.45867,584.67093 585.45868,585.15399 C 585.45867,585.54593 585.62729,585.84671 585.96454,586.05634 C 586.31089,586.26598 586.92612,586.42093 587.81024,586.52118 L 588.67157,586.64423 C 591.17807,586.96325 592.86426,587.48733 593.73016,588.21649 C 594.59603,588.94567 595.02898,590.08954 595.02899,591.64813 C 595.02898,593.27965 594.42741,594.50556 593.22430,595.32587 C 592.02117,596.14618 590.22560,596.55634 587.83759,596.55634 C 586.82586,596.55634 585.77768,596.47430 584.69305,596.31024 C 583.61753,596.15529 582.51011,595.91831 581.37079,595.59930 L 581.37079,591.88055 C 582.34605,592.35452 583.34409,592.70998 584.36493,592.94696 C 585.39487,593.18394 586.43849,593.30243 587.49579,593.30243 C 588.45281,593.30243 589.17286,593.17027 589.65594,592.90594 C 590.13901,592.64163 590.38054,592.24970 590.38055,591.73016 C 590.38054,591.29267 590.21192,590.96910 589.87469,590.75946 C 589.54656,590.54072 588.88575,590.37210 587.89227,590.25360 L 587.03094,590.14423 C 584.85255,589.87079 583.32586,589.36494 582.45087,588.62665 C 581.57586,587.88837 581.13837,586.76728 581.13837,585.26337 C 581.13837,583.64098 581.69435,582.43786 582.80634,581.65399 C 583.91831,580.87015 585.62274,580.47823 587.91962,580.47821 C 588.82195,580.47823 589.76987,580.54659 590.76337,580.68329 C 591.75684,580.82002 592.83692,581.03422 594.00360,581.32587 M 604.01141,576.49969 L 604.01141,580.84735 L 609.05634,580.84735 L 609.05634,584.34735 L 604.01141,584.34735 L 604.01141,590.84149 C 604.01141,591.55243 604.15268,592.03551 604.43524,592.29071 C 604.71779,592.53681 605.27833,592.65985 606.11688,592.65985 L 608.63251,592.65985 L 608.63251,596.15985 L 604.43524,596.15985 C 602.50294,596.15985 601.13120,595.75881 600.32001,594.95673 C 599.51792,594.14553 599.11688,592.77379 599.11688,590.84149 L 599.11688,584.34735 L 596.68329,584.34735 L 596.68329,580.84735 L 599.11688,580.84735 L 599.11688,576.49969 L 604.01141,576.49969 M 627.34930,588.46259 L 627.34930,589.85712 L 615.90594,589.85712 C 616.02443,591.00556 616.43914,591.86689 617.15009,592.44110 C 617.86101,593.01532 618.85450,593.30243 620.13055,593.30243 C 621.16049,593.30243 622.21322,593.15204 623.28876,592.85126 C 624.37338,592.54137 625.48536,592.07652 626.62469,591.45673 L 626.62469,595.23016 C 625.46713,595.66766 624.30958,595.99579 623.15204,596.21454 C 621.99447,596.44240 620.83692,596.55634 619.67938,596.55634 C 616.90854,596.55634 614.75294,595.85451 613.21259,594.45087 C 611.68133,593.03811 610.91571,591.06025 610.91571,588.51727 C 610.91571,586.01989 611.66766,584.05570 613.17157,582.62469 C 614.68459,581.19372 616.76271,580.47823 619.40594,580.47821 C 621.81218,580.47823 623.73536,581.20283 625.17548,582.65204 C 626.62468,584.10127 627.34929,586.03812 627.34930,588.46259 M 622.31805,586.83563 C 622.31804,585.90596 622.04460,585.15856 621.49774,584.59344 C 620.95997,584.01924 620.25359,583.73213 619.37860,583.73212 C 618.43068,583.73213 617.66049,584.00101 617.06805,584.53876 C 616.47560,585.06741 616.10646,585.83304 615.96063,586.83563 L 622.31805,586.83563 M 645.23212,583.39032 C 645.85189,582.44242 646.58561,581.72237 647.43329,581.23016 C 648.29004,580.72888 649.22884,580.47823 650.24969,580.47821 C 652.00879,580.47823 653.34863,581.02054 654.26923,582.10516 C 655.18977,583.18981 655.65006,584.76663 655.65009,586.83563 L 655.65009,596.15985 L 650.72821,596.15985 L 650.72821,588.17548 C 650.73730,588.05699 650.74186,587.93395 650.74188,587.80634 C 650.75097,587.67874 650.75553,587.49645 650.75555,587.25946 C 650.75553,586.17484 650.59603,585.39098 650.27704,584.90790 C 649.95801,584.41572 649.44303,584.16963 648.73212,584.16962 C 647.80241,584.16963 647.08236,584.55244 646.57196,585.31805 C 646.07064,586.08369 645.81088,587.19111 645.79266,588.64032 L 645.79266,596.15985 L 640.87079,596.15985 L 640.87079,588.17548 C 640.87078,586.48017 640.72494,585.39098 640.43329,584.90790 C 640.14161,584.41572 639.62208,584.16963 638.87469,584.16962 C 637.93588,584.16963 637.21127,584.55700 636.70087,585.33173 C 636.19044,586.09736 635.93523,587.19567 635.93524,588.62665 L 635.93524,596.15985 L 631.01337,596.15985 L 631.01337,580.84735 L 635.93524,580.84735 L 635.93524,583.08954 C 636.53680,582.22367 637.22495,581.57198 637.99969,581.13446 C 638.78354,580.69698 639.64487,580.47823 640.58368,580.47821 C 641.64096,580.47823 642.57520,580.73343 643.38641,581.24384 C 644.19760,581.75427 644.81283,582.46976 645.23212,583.39032 M 672.15204,581.32587 L 672.15204,585.04462 C 671.10385,584.60713 670.09213,584.27900 669.11688,584.06024 C 668.14161,583.84150 667.22104,583.73213 666.35516,583.73212 C 665.42547,583.73213 664.73276,583.85062 664.27704,584.08759 C 663.83042,584.31546 663.60711,584.67093 663.60712,585.15399 C 663.60711,585.54593 663.77573,585.84671 664.11298,586.05634 C 664.45932,586.26598 665.07456,586.42093 665.95868,586.52118 L 666.82001,586.64423 C 669.32651,586.96325 671.01270,587.48733 671.87860,588.21649 C 672.74447,588.94567 673.17741,590.08954 673.17743,591.64813 C 673.17741,593.27965 672.57585,594.50556 671.37274,595.32587 C 670.16960,596.14618 668.37403,596.55634 665.98602,596.55634 C 664.97430,596.55634 663.92612,596.47430 662.84149,596.31024 C 661.76597,596.15529 660.65855,595.91831 659.51923,595.59930 L 659.51923,591.88055 C 660.49448,592.35452 661.49253,592.70998 662.51337,592.94696 C 663.54331,593.18394 664.58693,593.30243 665.64423,593.30243 C 666.60125,593.30243 667.32130,593.17027 667.80438,592.90594 C 668.28744,592.64163 668.52898,592.24970 668.52899,591.73016 C 668.52898,591.29267 668.36036,590.96910 668.02313,590.75946 C 667.69500,590.54072 667.03419,590.37210 666.04071,590.25360 L 665.17938,590.14423 C 663.00099,589.87079 661.47430,589.36494 660.59930,588.62665 C 659.72430,587.88837 659.28680,586.76728 659.28680,585.26337 C 659.28680,583.64098 659.84279,582.43786 660.95477,581.65399 C 662.06675,580.87015 663.77117,580.47823 666.06805,580.47821 C 666.97039,580.47823 667.91830,580.54659 668.91180,580.68329 C 669.90528,580.82002 670.98536,581.03422 672.15204,581.32587" id="text2835"/>
    <path transform="matrix(0.720548,0.000000,0.000000,0.720548,119.0690,-151.2640)" style="fill:#ffffff;fill-opacity:1.0000000;fill-rule:evenodd;stroke:#000000;stroke-width:2.7756653;stroke-linecap:round;stroke-linejoin:round;stroke-miterlimit:4.0000000;stroke-dashoffset:0.0000000;stroke-opacity:1.0000000" d="M 472.75140,493.74783 C 472.75140,555.08430 422.97108,604.86462 361.63461,604.86462 C 300.29815,604.86462 250.51783,555.08430 250.51783,493.74783 C 250.51783,432.41137 300.29815,382.63105 361.63461,382.63105 C 422.97108,382.63105 472.75140,432.41137 472.75140,493.74783 z " id="path2845"/>
    <path style="font-size:24.000000px;font-style:normal;font-variant:normal;font-weight:bold;font-stretch:normal;text-align:center;line-height:125.00000%;writing-mode:lr-tb;text-anchor:middle;fill:#000000;fill-opacity:1.0000000;stroke:none;stroke-width:1.0000000pt;stroke-linecap:butt;stroke-linejoin:miter;stroke-opacity:1.0000000;font-family:Bitstream Vera Sans" d="M 334.67340,193.87611 L 334.67340,197.57924 C 333.71245,197.14957 332.77495,196.82535 331.86090,196.60658 C 330.94683,196.38785 330.08355,196.27847 329.27106,196.27846 C 328.19292,196.27847 327.39605,196.42691 326.88043,196.72377 C 326.36480,197.02066 326.10699,197.48160 326.10699,198.10658 C 326.10699,198.57534 326.27886,198.94253 326.62262,199.20815 C 326.97418,199.46597 327.60699,199.68863 328.52106,199.87611 L 330.44293,200.26283 C 332.38823,200.65347 333.77104,201.24722 334.59137,202.04408 C 335.41167,202.84097 335.82182,203.97378 335.82184,205.44252 C 335.82182,207.37221 335.24760,208.80971 334.09918,209.75502 C 332.95854,210.69252 331.21245,211.16127 328.86090,211.16127 C 327.75152,211.16127 326.63824,211.05580 325.52106,210.84486 C 324.40387,210.63393 323.28668,210.32143 322.16949,209.90736 L 322.16949,206.09877 C 323.28668,206.69252 324.36480,207.14174 325.40387,207.44643 C 326.45074,207.74330 327.45855,207.89174 328.42731,207.89174 C 329.41167,207.89174 330.16558,207.72768 330.68903,207.39955 C 331.21245,207.07143 331.47417,206.60268 331.47418,205.99330 C 331.47417,205.44643 331.29448,205.02456 330.93512,204.72768 C 330.58355,204.43081 329.87652,204.16518 328.81403,203.93080 L 327.06793,203.54408 C 325.31793,203.16909 324.03668,202.57143 323.22418,201.75111 C 322.41949,200.93081 322.01715,199.82534 322.01715,198.43471 C 322.01715,196.69253 322.57965,195.35269 323.70465,194.41518 C 324.82965,193.47769 326.44683,193.00894 328.55621,193.00893 C 329.51714,193.00894 330.50542,193.08316 331.52106,193.23158 C 332.53667,193.37223 333.58745,193.58707 334.67340,193.87611 M 344.18903,193.96986 L 344.18903,197.69643 L 348.51324,197.69643 L 348.51324,200.69643 L 344.18903,200.69643 L 344.18903,206.26283 C 344.18902,206.87221 344.31011,207.28627 344.55231,207.50502 C 344.79449,207.71596 345.27496,207.82143 345.99371,207.82143 L 348.14996,207.82143 L 348.14996,210.82143 L 344.55231,210.82143 C 342.89605,210.82143 341.72027,210.47768 341.02496,209.79018 C 340.33746,209.09487 339.99371,207.91909 339.99371,206.26283 L 339.99371,200.69643 L 337.90778,200.69643 L 337.90778,197.69643 L 339.99371,197.69643 L 339.99371,193.96986 L 344.18903,193.96986 M 360.84137,201.27065 C 360.47417,201.09878 360.10698,200.97378 359.73981,200.89565 C 359.38042,200.80972 359.01714,200.76675 358.64996,200.76674 C 357.57183,200.76675 356.73980,201.11440 356.15387,201.80971 C 355.57574,202.49722 355.28668,203.48550 355.28668,204.77455 L 355.28668,210.82143 L 351.09137,210.82143 L 351.09137,197.69643 L 355.28668,197.69643 L 355.28668,199.85268 C 355.82574,198.99331 356.44292,198.36831 357.13824,197.97768 C 357.84136,197.57925 358.68120,197.38003 359.65778,197.38002 C 359.79839,197.38003 359.95073,197.38785 360.11481,197.40346 C 360.27886,197.41128 360.51714,197.43472 360.82965,197.47377 L 360.84137,201.27065 M 368.83356,204.91518 C 367.95855,204.91518 367.29839,205.06362 366.85309,205.36049 C 366.41558,205.65737 366.19683,206.09487 366.19684,206.67299 C 366.19683,207.20424 366.37261,207.62221 366.72418,207.92690 C 367.08355,208.22377 367.57964,208.37221 368.21246,208.37221 C 369.00152,208.37221 369.66558,208.09096 370.20465,207.52846 C 370.74370,206.95815 371.01323,206.24721 371.01324,205.39565 L 371.01324,204.91518 L 368.83356,204.91518 M 375.24371,203.33315 L 375.24371,210.82143 L 371.01324,210.82143 L 371.01324,208.87611 C 370.45074,209.67299 369.81792,210.25502 369.11481,210.62221 C 368.41167,210.98158 367.55621,211.16127 366.54840,211.16127 C 365.18902,211.16127 364.08355,210.76674 363.23199,209.97768 C 362.38824,209.18080 361.96637,208.14955 361.96637,206.88393 C 361.96637,205.34487 362.49371,204.21596 363.54840,203.49721 C 364.61090,202.77847 366.27496,202.41909 368.54059,202.41908 L 371.01324,202.41908 L 371.01324,202.09096 C 371.01323,201.42690 370.75152,200.94253 370.22809,200.63783 C 369.70464,200.32534 368.88824,200.16909 367.77887,200.16908 C 366.88043,200.16909 366.04449,200.25894 365.27106,200.43861 C 364.49762,200.61831 363.77887,200.88784 363.11481,201.24721 L 363.11481,198.04799 C 364.01324,197.82925 364.91558,197.66519 365.82184,197.55580 C 366.72808,197.43863 367.63433,197.38003 368.54059,197.38002 C 370.90777,197.38003 372.61480,197.84878 373.66168,198.78627 C 374.71636,199.71597 375.24370,201.23159 375.24371,203.33315 M 383.75153,193.96986 L 383.75153,197.69643 L 388.07574,197.69643 L 388.07574,200.69643 L 383.75153,200.69643 L 383.75153,206.26283 C 383.75152,206.87221 383.87261,207.28627 384.11481,207.50502 C 384.35699,207.71596 384.83746,207.82143 385.55621,207.82143 L 387.71246,207.82143 L 387.71246,210.82143 L 384.11481,210.82143 C 382.45855,210.82143 381.28277,210.47768 380.58746,209.79018 C 379.89996,209.09487 379.55621,207.91909 379.55621,206.26283 L 379.55621,200.69643 L 377.47028,200.69643 L 377.47028,197.69643 L 379.55621,197.69643 L 379.55621,193.96986 L 383.75153,193.96986 M 403.75543,204.22377 L 403.75543,205.41908 L 393.94684,205.41908 C 394.04840,206.40346 394.40386,207.14174 395.01324,207.63393 C 395.62261,208.12612 396.47417,208.37221 397.56793,208.37221 C 398.45073,208.37221 399.35308,208.24330 400.27496,207.98549 C 401.20464,207.71987 402.15776,207.32143 403.13434,206.79018 L 403.13434,210.02455 C 402.14214,210.39955 401.14995,210.68080 400.15778,210.86830 C 399.16558,211.06361 398.17339,211.16127 397.18121,211.16127 C 394.80621,211.16127 392.95855,210.55971 391.63824,209.35658 C 390.32574,208.14565 389.66949,206.45034 389.66949,204.27065 C 389.66949,202.13003 390.31402,200.44644 391.60309,199.21986 C 392.89996,197.99331 394.68121,197.38003 396.94684,197.38002 C 399.00933,197.38003 400.65776,198.00113 401.89215,199.24330 C 403.13432,200.48550 403.75542,202.14565 403.75543,204.22377 M 399.44293,202.82924 C 399.44292,202.03237 399.20855,201.39175 398.73981,200.90736 C 398.27886,200.41519 397.67339,200.16909 396.92340,200.16908 C 396.11089,200.16909 395.45074,200.39956 394.94293,200.86049 C 394.43511,201.31362 394.11871,201.96987 393.99371,202.82924 L 399.44293,202.82924 M 415.84918,208.59486 C 415.27105,209.36049 414.63433,209.92299 413.93903,210.28236 C 413.24371,210.64174 412.43902,210.82143 411.52496,210.82143 C 409.92340,210.82143 408.59918,210.19252 407.55231,208.93471 C 406.50543,207.66909 405.98199,206.05971 405.98199,204.10658 C 405.98199,202.14565 406.50543,200.54019 407.55231,199.29018 C 408.59918,198.03238 409.92340,197.40347 411.52496,197.40346 C 412.43902,197.40347 413.24371,197.58316 413.93903,197.94252 C 414.63433,198.30191 415.27105,198.86831 415.84918,199.64174 L 415.84918,197.69643 L 420.06793,197.69643 L 420.06793,209.49721 C 420.06792,211.60658 419.39995,213.21596 418.06403,214.32533 C 416.73589,215.44252 414.80620,216.00111 412.27496,216.00111 C 411.45464,216.00111 410.66168,215.93861 409.89606,215.81361 C 409.13043,215.68861 408.36090,215.49720 407.58746,215.23940 L 407.58746,211.96986 C 408.32183,212.39174 409.04058,212.70424 409.74371,212.90736 C 410.44683,213.11830 411.15386,213.22377 411.86481,213.22377 C 413.23980,213.22377 414.24761,212.92299 414.88824,212.32143 C 415.52886,211.71986 415.84917,210.77846 415.84918,209.49721 L 415.84918,208.59486 M 413.08356,200.42690 C 412.21636,200.42691 411.54058,200.74722 411.05621,201.38783 C 410.57183,202.02847 410.32965,202.93472 410.32965,204.10658 C 410.32965,205.30971 410.56402,206.22377 411.03278,206.84877 C 411.50152,207.46596 412.18511,207.77455 413.08356,207.77455 C 413.95855,207.77455 414.63823,207.45424 415.12262,206.81361 C 415.60698,206.17299 415.84917,205.27065 415.84918,204.10658 C 415.84917,202.93472 415.60698,202.02847 415.12262,201.38783 C 414.63823,200.74722 413.95855,200.42691 413.08356,200.42690 M 422.35309,197.69643 L 426.54840,197.69643 L 430.07574,206.60268 L 433.07574,197.69643 L 437.27106,197.69643 L 431.75153,212.06361 C 431.19683,213.52455 430.54839,214.54408 429.80621,215.12221 C 429.07183,215.70814 428.09918,216.00111 426.88824,216.00111 L 424.46246,216.00111 L 424.46246,213.24721 L 425.77496,213.24721 C 426.48590,213.24721 427.00152,213.13392 427.32184,212.90736 C 427.64996,212.68080 427.90386,212.27455 428.08356,211.68861 L 428.20074,211.32533 L 422.35309,197.69643" id="text2847"/>
    <path transform="matrix(0.720548,0.000000,0.000000,0.720548,130.4975,364.4503)" style="fill:#ffffff;fill-opacity:1.0000000;fill-rule:evenodd;stroke:#000000;stroke-width:2.7756653;stroke-linecap:round;stroke-linejoin:round;stroke-miterlimit:4.0000000;stroke-dashoffset:0.0000000;stroke-opacity:1.0000000" d="M 472.75140,493.74783 C 472.75140,555.08430 422.97108,604.86462 361.63461,604.86462 C 300.29815,604.86462 250.51783,555.08430 250.51783,493.74783 C 250.51783,432.41137 300.29815,382.63105 361.63461,382.63105 C 422.97108,382.63105 472.75140,432.41137 472.75140,493.74783 z " id="path2857"/>
    <path style="font-size:28.000000px;font-style:normal;font-variant:normal;font-weight:bold;font-stretch:normal;text-align:center;line-height:125.00000%;writing-mode:lr-tb;text-anchor:middle;fill:#000000;fill-opacity:1.0000000;stroke:none;stroke-width:1.0000000pt;stroke-linecap:butt;stroke-linejoin:miter;stroke-opacity:1.0000000;font-family:Bitstream Vera Sans" d="M 368.28159,710.88824 L 368.28159,715.20856 C 367.16048,714.70727 366.06673,714.32902 365.00034,714.07379 C 363.93392,713.81860 362.92676,713.69100 361.97885,713.69098 C 360.72103,713.69100 359.79134,713.86417 359.18979,714.21051 C 358.58822,714.55688 358.28744,715.09464 358.28745,715.82379 C 358.28744,716.37068 358.48796,716.79907 358.88901,717.10895 C 359.29916,717.40974 360.03744,717.66951 361.10385,717.88824 L 363.34604,718.33942 C 365.61556,718.79516 367.22884,719.48787 368.18588,720.41754 C 369.14290,721.34724 369.62141,722.66885 369.62143,724.38239 C 369.62141,726.63369 368.95149,728.31077 367.61166,729.41364 C 366.28092,730.50739 364.24381,731.05426 361.50034,731.05426 C 360.20606,731.05426 358.90723,730.93121 357.60385,730.68512 C 356.30046,730.43903 354.99708,730.07444 353.69370,729.59137 L 353.69370,725.14801 C 354.99708,725.84072 356.25489,726.36481 357.46713,726.72028 C 358.68848,727.06663 359.86426,727.23981 360.99448,727.23981 C 362.14290,727.23981 363.02246,727.04840 363.63315,726.66559 C 364.24381,726.28278 364.54915,725.73591 364.54916,725.02496 C 364.54915,724.38695 364.33952,723.89476 363.92026,723.54840 C 363.51009,723.20205 362.68522,722.89216 361.44565,722.61871 L 359.40854,722.16754 C 357.36687,721.73005 355.87208,721.03279 354.92416,720.07574 C 353.98536,719.11872 353.51596,717.82901 353.51596,716.20660 C 353.51596,714.17407 354.17221,712.61092 355.48471,711.51715 C 356.79721,710.42342 358.68392,709.87655 361.14487,709.87653 C 362.26595,709.87655 363.41894,709.96314 364.60385,710.13629 C 365.78873,710.30037 367.01464,710.55103 368.28159,710.88824 M 379.38315,710.99762 L 379.38315,715.34528 L 384.42807,715.34528 L 384.42807,718.84528 L 379.38315,718.84528 L 379.38315,725.33942 C 379.38314,726.05036 379.52442,726.53343 379.80698,726.78864 C 380.08952,727.03473 380.65007,727.15778 381.48862,727.15778 L 384.00424,727.15778 L 384.00424,730.65778 L 379.80698,730.65778 C 377.87468,730.65778 376.50294,730.25673 375.69174,729.45465 C 374.88966,728.64345 374.48861,727.27171 374.48862,725.33942 L 374.48862,718.84528 L 372.05502,718.84528 L 372.05502,715.34528 L 374.48862,715.34528 L 374.48862,710.99762 L 379.38315,710.99762 M 394.29916,723.76715 C 393.27832,723.76716 392.50814,723.94033 391.98862,724.28668 C 391.47819,724.63304 391.22299,725.14346 391.22299,725.81793 C 391.22299,726.43773 391.42806,726.92536 391.83823,727.28082 C 392.25749,727.62718 392.83627,727.80036 393.57455,727.80035 C 394.49512,727.80036 395.26986,727.47223 395.89877,726.81598 C 396.52767,726.15062 396.84212,725.32119 396.84213,724.32770 L 396.84213,723.76715 L 394.29916,723.76715 M 401.77768,721.92145 L 401.77768,730.65778 L 396.84213,730.65778 L 396.84213,728.38824 C 396.18587,729.31793 395.44759,729.99697 394.62729,730.42535 C 393.80697,730.84462 392.80892,731.05426 391.63315,731.05426 C 390.04721,731.05426 388.75749,730.59397 387.76401,729.67340 C 386.77963,728.74372 386.28744,727.54059 386.28745,726.06403 C 386.28744,724.26846 386.90268,722.95140 388.13315,722.11285 C 389.37273,721.27432 391.31413,720.85505 393.95737,720.85504 L 396.84213,720.85504 L 396.84213,720.47223 C 396.84212,719.69750 396.53678,719.13240 395.92612,718.77692 C 395.31543,718.41235 394.36296,718.23005 393.06870,718.23004 C 392.02051,718.23005 391.04525,718.33487 390.14291,718.54449 C 389.24057,718.75414 388.40203,719.06859 387.62729,719.48785 L 387.62729,715.75543 C 388.67546,715.50024 389.72820,715.30883 390.78549,715.18121 C 391.84278,715.04451 392.90007,714.97615 393.95737,714.97614 C 396.71907,714.97615 398.71061,715.52303 399.93198,716.61676 C 401.16243,717.70141 401.77766,719.46964 401.77768,721.92145 M 416.43393,709.38434 L 416.43393,712.59723 L 413.72690,712.59723 C 413.03418,712.59725 412.55111,712.72485 412.27768,712.98004 C 412.00423,713.22615 411.86752,713.65909 411.86752,714.27887 L 411.86752,715.34528 L 416.05112,715.34528 L 416.05112,718.84528 L 411.86752,718.84528 L 411.86752,730.65778 L 406.97299,730.65778 L 406.97299,718.84528 L 404.53940,718.84528 L 404.53940,715.34528 L 406.97299,715.34528 L 406.97299,714.27887 C 406.97299,712.61092 407.43783,711.38045 408.36752,710.58746 C 409.29721,709.78540 410.73731,709.38436 412.68784,709.38434 L 416.43393,709.38434 M 428.62924,709.38434 L 428.62924,712.59723 L 425.92221,712.59723 C 425.22949,712.59725 424.74642,712.72485 424.47299,712.98004 C 424.19955,713.22615 424.06283,713.65909 424.06284,714.27887 L 424.06284,715.34528 L 428.24643,715.34528 L 428.24643,718.84528 L 424.06284,718.84528 L 424.06284,730.65778 L 419.16830,730.65778 L 419.16830,718.84528 L 416.73471,718.84528 L 416.73471,715.34528 L 419.16830,715.34528 L 419.16830,714.27887 C 419.16830,712.61092 419.63314,711.38045 420.56284,710.58746 C 421.49252,709.78540 422.93262,709.38436 424.88315,709.38434 L 428.62924,709.38434" id="text2859"/>
  </g>
</svg>