<?xml version="1.0" encoding="UTF-8"?>
<!-- Created with Inkscape (http://www.inkscape.org/) -->
<svg width="48.897mm" height="19.379mm" version="1.1" viewBox="0 0 48.897 19.379" xmlns="http://www.w3.org/2000/svg">
 <defs>
  <marker id="Arrow1Lend_Fnone_S-000000" overflow="visible" orient="auto">
   <path transform="matrix(-.8 0 0 -.8 -10 0)" d="m0 0 5-5-17.5 5 17.5 5z" fill-rule="evenodd" stroke="#000" stroke-width="1pt"/>
  </marker>
 </defs>
 <g font-family="'Liberation Sans'" font-size="2.8222px" letter-spacing="0px" stroke-width=".26458" word-spacing="0px">
  <text x="1.511905" y="4.0657029" style="line-height:1.25" xml:space="preserve"><tspan x="1.511905" y="4.0657029" stroke-width=".26458">pm1</tspan></text>
  <text x="1.4893906" y="17.492025" style="line-height:1.25" xml:space="preserve"><tspan x="1.4893906" y="17.492025" stroke-width=".26458">pm2</tspan></text>
  <text x="15.591516" y="11.525616" style="line-height:1.25" xml:space="preserve"><tspan x="15.591516" y="11.525616" stroke-width=".26458">first-name</tspan></text>
  <text x="37.133446" y="4.549603" style="line-height:1.25" xml:space="preserve"><tspan x="37.133446" y="4.549603" stroke-width=".26458">Theresa</tspan></text>
  <text x="38.564709" y="17.025347" style="line-height:1.25" xml:space="preserve"><tspan x="38.564709" y="17.025347" stroke-width=".26458">Boris</tspan></text>
 </g>
 <g fill="none" stroke="#000101" stroke-linecap="round" stroke-linejoin="bevel" stroke-width=".1">
  <ellipse cx="4.0693" cy="3.3497" rx="4.0193" ry="3.2997"/>
  <ellipse cx="4.1373" cy="16.778" rx="3.6688" ry="2.5511"/>
  <ellipse cx="21.771" cy="10.729" rx="8.1279" ry="3.2279"/>
  <ellipse cx="42.181" cy="3.5517" rx="6.6656" ry="3.0931"/>
  <ellipse cx="41.706" cy="16.341" rx="4.3963" ry="2.3838"/>
  <g>
   <path d="m7.3094 5.3094 6.6725 4.2638" marker-end="url(#Arrow1Lend_Fnone_S-000000)"/>
   <path d="m7.51 16.05 7.4383-3.313" marker-end="url(#Arrow1Lend_Fnone_S-000000)"/>
   <path d="m27.959 8.4388 8.2344-3.1961" marker-end="url(#Arrow1Lend_Fnone_S-000000)"/>
   <path d="m29.49 12.219 7.6998 3.2127" marker-end="url(#Arrow1Lend_Fnone_S-000000)"/>
  </g>
 </g>
</svg>
