<?xml version="1.0" encoding="UTF-8"?>
<!-- Created with Inkscape (http://www.inkscape.org/) -->
<svg width="54.448mm" height="25.296mm" version="1.1" viewBox="0 0 54.448 25.296" xmlns="http://www.w3.org/2000/svg">
 <defs>
  <marker id="Arrow1Lend_Fnone_S-000000" overflow="visible" orient="auto">
   <path transform="matrix(-.8 0 0 -.8 -10 0)" d="m0 0 5-5-17.5 5 17.5 5z" fill-rule="evenodd" stroke="#000" stroke-width="1pt"/>
  </marker>
 </defs>
 <g font-family="'Liberation Sans'" font-size="2.8222px" letter-spacing="0px" stroke-width=".26458" word-spacing="0px">
  <text x="4.7859778" y="7.1688647" style="line-height:1.25" xml:space="preserve"><tspan x="4.7859778" y="7.1688647" stroke-width=".26458">pm1</tspan></text>
  <text x="4.7634635" y="20.595186" style="line-height:1.25" xml:space="preserve"><tspan x="4.7634635" y="20.595186" stroke-width=".26458">pm2</tspan></text>
  <text x="18.865589" y="14.628778" style="line-height:1.25" xml:space="preserve"><tspan x="18.865589" y="14.628778" stroke-width=".26458">first-name</tspan></text>
  <text x="40.40752" y="7.6527648" style="line-height:1.25" xml:space="preserve"><tspan x="40.40752" y="7.6527648" stroke-width=".26458">Theresa</tspan></text>
  <text x="41.838783" y="20.128508" style="line-height:1.25" xml:space="preserve"><tspan x="41.838783" y="20.128508" stroke-width=".26458">Boris</tspan></text>
 </g>
 <g fill="none" stroke-linecap="round" stroke-linejoin="bevel" stroke-width=".1">
  <g stroke="#000101">
   <ellipse cx="7.3434" cy="6.4528" rx="4.0193" ry="3.2997"/>
   <ellipse cx="7.4114" cy="19.881" rx="3.6688" ry="2.5511"/>
   <ellipse cx="25.046" cy="13.832" rx="8.1279" ry="3.2279"/>
   <ellipse cx="45.455" cy="6.6549" rx="6.6656" ry="3.0931"/>
   <ellipse cx="44.98" cy="19.444" rx="4.3963" ry="2.3838"/>
   <g>
    <path d="m10.583 8.4126 6.6725 4.2638" marker-end="url(#Arrow1Lend_Fnone_S-000000)"/>
    <path d="m10.784 19.153 7.4383-3.313" marker-end="url(#Arrow1Lend_Fnone_S-000000)"/>
    <path d="m31.233 11.542 8.2344-3.1961" marker-end="url(#Arrow1Lend_Fnone_S-000000)"/>
    <path d="m32.765 15.322 7.6998 3.2127" marker-end="url(#Arrow1Lend_Fnone_S-000000)"/>
   </g>
  </g>
  <path d="m10.897 1.4914c1.6013 1.2281 2.5981 3.0671 3.9348 4.579 1.7235 1.9493 4.0523 3.3583 6.5819 3.9679 2.5296 0.6096 5.2485 0.41506 7.6608-0.56035 2.0574-0.83191 3.8518-2.1943 5.571-3.5975 1.7193-1.4032 3.4044-2.8727 5.3329-3.9708 2.0731-1.1805 4.4478-1.9127 6.8302-1.787s4.7616 1.1733 6.2392 3.0463c0.7167 0.90849 1.2141 2.0054 1.3266 3.1571s-0.17762 2.3552-0.88142 3.2737c-0.81149 1.0591-2.0999 1.6673-3.4082 1.9287-1.3084 0.2614-2.6558 0.21257-3.9898 0.18388-1.8613-0.04003-3.7361-0.03765-5.5673 0.29819-1.8312 0.33583-3.6315 1.0242-5.054 2.2252-1.3064 1.103-2.2576 2.6016-3.6569 3.5842-1.2852 0.90244-2.8787 1.3056-4.4491 1.3141-1.5704 0.0085-3.1236-0.35905-4.6022-0.88826-2.9571-1.0584-5.6704-2.7638-8.6982-3.5988-2.3079-0.63644-4.7299-0.74716-7.0608-1.293-1.1655-0.27294-2.313-0.65779-3.3527-1.251-1.0397-0.59319-1.9709-1.4031-2.6053-2.4182-0.80036-1.2806-1.0935-2.8652-0.82356-4.351s1.0963-2.8605 2.2696-3.8113c1.1732-0.95083 2.682-1.4736 4.1921-1.4726 1.5102 0.0010776 3.012 0.52243 4.2104 1.4414z" stroke="#b4b4b4"/>
  <path d="m7.5523 24.63c2.9132-0.95741 5.6199-2.4397 8.3965-3.7412s5.6953-2.441 8.7554-2.6385c3.4031-0.21954 6.7745 0.73962 9.9593 1.9589 3.1848 1.2193 6.2748 2.7108 9.5578 3.6335 1.2728 0.35771 2.6038 0.62975 3.9119 0.43783 0.65404-0.09596 1.2952-0.31004 1.8525-0.66551 0.55732-0.35547 1.0283-0.85599 1.3095-1.4542 0.33115-0.70443 0.38749-1.5225 0.22131-2.2829s-0.54616-1.4647-1.0387-2.0674c-0.98501-1.2055-2.3797-1.9913-3.7459-2.7377-3.4309-1.8742-6.9168-3.6851-10.614-4.9556-3.6973-1.2706-7.6337-1.9904-11.526-1.6246-6.7053 0.6301-12.645 4.3561-18.736 7.2296-1.5507 0.73156-3.1668 1.4407-4.3596 2.6724-0.59641 0.61586-1.0743 1.3603-1.3024 2.1867s-0.19373 1.7374 0.17438 2.5117c0.28817 0.60611 0.7709 1.111 1.3411 1.4649s1.2253 0.56062 1.8912 0.64375c1.3319 0.16625 2.677-0.15234 3.9521-0.57142z" stroke="#b4b4b4"/>
 </g>
</svg>
