<?xml version="1.0" encoding="UTF-8"?>
<!-- Created with Inkscape (http://www.inkscape.org/) -->
<svg width="72.407mm" height="31.528mm" version="1.1" viewBox="0 0 72.407 31.528" xmlns="http://www.w3.org/2000/svg">
 <defs>
  <marker id="Arrow1Lend" overflow="visible" orient="auto">
   <path transform="matrix(-.8 0 0 -.8 -10 0)" d="m0 0 5-5-17.5 5 17.5 5z" fill="#000" fill-rule="evenodd" stroke="#000" stroke-width="1pt"/>
  </marker>
 </defs>
 <g transform="translate(25.156 -6.3784)">
  <g font-family="'Liberation Sans'" font-size="2.8222px" letter-spacing="0px" stroke-width=".26458" word-spacing="0px">
   <text x="8.229248" y="16.096447" style="line-height:1.25" xml:space="preserve"><tspan x="8.229248" y="16.096447" stroke-width=".26458">Leek</tspan></text>
   <text x="7.990027" y="22.986591" style="line-height:1.25" xml:space="preserve"><tspan x="7.990027" y="22.986591" stroke-width=".26458">Potato</tspan></text>
   <text x="7.3181295" y="30.422058" style="line-height:1.25" xml:space="preserve"><tspan x="7.3181295" y="30.422058" stroke-width=".26458">Tomato</tspan></text>
   <text x="27.139929" y="23.064566" style="line-height:1.25" xml:space="preserve"><tspan x="27.139929" y="23.064566" stroke-width=".26458">Vegetable</tspan></text>
  </g>
  <g fill="none" stroke="#000" stroke-width=".1">
   <g stroke-linecap="round" stroke-linejoin="bevel" stroke-miterlimit="3.5">
    <ellipse cx="11.285" cy="15.168" rx="4.5174" ry="2.8039"/>
    <ellipse cx="12.06" cy="22.266" rx="5.5861" ry="2.7516"/>
    <ellipse cx="12.044" cy="29.886" rx="6.343" ry="3.3813"/>
    <ellipse cx="33.255" cy="22.124" rx="8.3899" ry="3.3176"/>
   </g>
   <g>
    <path d="m15.935 15.205 12.355 4.1594" marker-end="url(#Arrow1Lend)"/>
    <path d="m17.645 22.495 7.1217-0.4128" marker-end="url(#Arrow1Lend)"/>
    <path d="m17.661 28.217 10.138-3.5967" marker-end="url(#Arrow1Lend)" stroke-linecap="round" stroke-linejoin="bevel"/>
   </g>
  </g>
  <text x="-20.652111" y="18.589016" font-family="'Liberation Sans'" font-size="2.8222px" letter-spacing="0px" stroke-width=".26458" word-spacing="0px" style="line-height:1.25" xml:space="preserve"><tspan x="-20.652111" y="18.589016">Soup Recipe</tspan><tspan x="-20.652111" y="22.116804"/></text>
  <g fill="none" stroke="#000" stroke-linecap="round" stroke-linejoin="bevel">
   <ellipse cx="-12.8" cy="17.637" rx="10.123" ry="3.301" stroke-miterlimit="3.5" stroke-width=".10957"/>
   <g>
    <path d="m6.8346 15.359-10.735 0.80767" marker-end="url(#Arrow1Lend)" stroke-width=".1"/>
    <path d="m6.4205 22.299-10.451-3.0276" marker-end="url(#Arrow1Lend)" stroke-width=".1"/>
    <ellipse cx="-.58966" cy="17.59" rx="24.513" ry="9.1688" stroke-width=".10535"/>
    <ellipse cx="24.412" cy="22.142" rx="22.79" ry="15.714" stroke-width=".1"/>
   </g>
  </g>
 </g>
</svg>
